<mxfile host="Electron" agent="Mozilla/5.0 (Windows NT 10.0; Win64; x64) AppleWebKit/537.36 (KHTML, like Gecko) draw.io/28.1.2 Chrome/138.0.7204.243 Electron/37.4.0 Safari/537.36" version="28.1.2" pages="2">
  <diagram id="FefDWBaQlUwgcq6p-n2y" name="Flowchart">
    <mxGraphModel dx="2308" dy="1015" grid="1" gridSize="10" guides="1" tooltips="1" connect="1" arrows="1" fold="1" page="1" pageScale="1" pageWidth="850" pageHeight="1100" math="0" shadow="0">
      <root>
        <mxCell id="0" />
        <mxCell id="1" parent="0" />
        <mxCell id="sPpjFu0KEkCYgrgoaxfR-38" value="" style="rounded=0;whiteSpace=wrap;html=1;fillColor=#070909;strokeColor=#0e8088;" parent="1" vertex="1">
          <mxGeometry x="2992.75" y="899.5" width="380" height="200" as="geometry" />
        </mxCell>
        <mxCell id="5fkRjXRHGFC-vEdVIcNM-1" style="edgeStyle=orthogonalEdgeStyle;rounded=1;orthogonalLoop=1;jettySize=auto;html=1;exitX=0.5;exitY=1;exitDx=0;exitDy=0;entryX=0.5;entryY=0;entryDx=0;entryDy=0;" parent="1" source="kTCFsRzS2SGjxPNvN--O-5" target="BkTA1rFJATQWOww_pqdA-7" edge="1">
          <mxGeometry relative="1" as="geometry" />
        </mxCell>
        <mxCell id="8QDin1UegqGe8droCSOD-121" value="True" style="edgeLabel;html=1;align=center;verticalAlign=middle;resizable=0;points=[];" parent="5fkRjXRHGFC-vEdVIcNM-1" vertex="1" connectable="0">
          <mxGeometry x="-0.4424" y="-2" relative="1" as="geometry">
            <mxPoint as="offset" />
          </mxGeometry>
        </mxCell>
        <mxCell id="8QDin1UegqGe8droCSOD-117" value="" style="edgeStyle=orthogonalEdgeStyle;rounded=0;orthogonalLoop=1;jettySize=auto;html=1;" parent="1" source="kTCFsRzS2SGjxPNvN--O-5" target="8QDin1UegqGe8droCSOD-116" edge="1">
          <mxGeometry relative="1" as="geometry" />
        </mxCell>
        <mxCell id="8QDin1UegqGe8droCSOD-120" value="False" style="edgeLabel;html=1;align=center;verticalAlign=middle;resizable=0;points=[];" parent="8QDin1UegqGe8droCSOD-117" vertex="1" connectable="0">
          <mxGeometry x="-0.1728" y="-4" relative="1" as="geometry">
            <mxPoint as="offset" />
          </mxGeometry>
        </mxCell>
        <mxCell id="kTCFsRzS2SGjxPNvN--O-5" value="pilih == 1" style="rhombus;whiteSpace=wrap;html=1;fillColor=#000000;strokeColor=#FF0000;rounded=0;" parent="1" vertex="1">
          <mxGeometry x="400" y="470" width="80" height="80" as="geometry" />
        </mxCell>
        <mxCell id="8QDin1UegqGe8droCSOD-8" value="" style="edgeStyle=orthogonalEdgeStyle;rounded=0;orthogonalLoop=1;jettySize=auto;html=1;" parent="1" source="BkTA1rFJATQWOww_pqdA-7" target="8QDin1UegqGe8droCSOD-7" edge="1">
          <mxGeometry relative="1" as="geometry" />
        </mxCell>
        <mxCell id="BkTA1rFJATQWOww_pqdA-7" value="username = login()" style="rounded=0;whiteSpace=wrap;html=1;strokeColor=#FF9933;fillColor=#000000;" parent="1" vertex="1">
          <mxGeometry x="380" y="580" width="120" height="60" as="geometry" />
        </mxCell>
        <mxCell id="QnofTfZ3_4MNjuNKp3YF-1" style="edgeStyle=orthogonalEdgeStyle;rounded=0;orthogonalLoop=1;jettySize=auto;html=1;entryX=0.5;entryY=0;entryDx=0;entryDy=0;" parent="1" source="t_WGj7whDtWNZ_SXQKLY-1" target="QnofTfZ3_4MNjuNKp3YF-2" edge="1">
          <mxGeometry relative="1" as="geometry">
            <mxPoint x="440" y="290" as="targetPoint" />
          </mxGeometry>
        </mxCell>
        <mxCell id="t_WGj7whDtWNZ_SXQKLY-1" value="&lt;div&gt;Menu UTAMA&lt;/div&gt;1. Login&lt;div&gt;2. Registrasi&lt;/div&gt;&lt;div&gt;3. Keluar&lt;/div&gt;" style="shape=parallelogram;perimeter=parallelogramPerimeter;whiteSpace=wrap;html=1;fixedSize=1;fillColor=#000000;strokeColor=#FF3399;strokeWidth=2;shadow=1;rounded=0;" parent="1" vertex="1">
          <mxGeometry x="369.99" y="260" width="140" height="70" as="geometry" />
        </mxCell>
        <mxCell id="8QDin1UegqGe8droCSOD-5" style="edgeStyle=orthogonalEdgeStyle;rounded=0;orthogonalLoop=1;jettySize=auto;html=1;exitX=0.5;exitY=1;exitDx=0;exitDy=0;exitPerimeter=0;" parent="1" source="auLrO9RY4HXhn0hgR3kY-1" target="8QDin1UegqGe8droCSOD-3" edge="1">
          <mxGeometry relative="1" as="geometry" />
        </mxCell>
        <mxCell id="auLrO9RY4HXhn0hgR3kY-1" value="START" style="strokeWidth=2;html=1;shape=mxgraph.flowchart.start_1;whiteSpace=wrap;shadow=1;strokeColor=#9933FF;fillColor=#E5CCFF;rounded=1;" parent="1" vertex="1">
          <mxGeometry x="390" y="60" width="100" height="60" as="geometry" />
        </mxCell>
        <mxCell id="8QDin1UegqGe8droCSOD-1" style="edgeStyle=orthogonalEdgeStyle;rounded=0;orthogonalLoop=1;jettySize=auto;html=1;exitX=0.5;exitY=1;exitDx=0;exitDy=0;entryX=0.5;entryY=0;entryDx=0;entryDy=0;" parent="1" source="QnofTfZ3_4MNjuNKp3YF-2" target="kTCFsRzS2SGjxPNvN--O-5" edge="1">
          <mxGeometry relative="1" as="geometry" />
        </mxCell>
        <mxCell id="QnofTfZ3_4MNjuNKp3YF-2" value="input pilihan" style="shape=parallelogram;perimeter=parallelogramPerimeter;whiteSpace=wrap;html=1;fixedSize=1;rounded=0;shadow=1;strokeColor=#FF3399;strokeWidth=2;align=center;verticalAlign=middle;fontFamily=Helvetica;fontSize=12;fontColor=default;fillColor=#000000;" parent="1" vertex="1">
          <mxGeometry x="380" y="390" width="120" height="50" as="geometry" />
        </mxCell>
        <mxCell id="QnofTfZ3_4MNjuNKp3YF-8" value="" style="endArrow=classic;html=1;rounded=0;entryX=0.25;entryY=0.2;entryDx=0;entryDy=0;entryPerimeter=0;" parent="1" target="QnofTfZ3_4MNjuNKp3YF-2" edge="1">
          <mxGeometry width="50" height="50" relative="1" as="geometry">
            <mxPoint x="370" y="400" as="sourcePoint" />
            <mxPoint x="420" y="260" as="targetPoint" />
          </mxGeometry>
        </mxCell>
        <mxCell id="fw-Dkt5grC2mR6McyDsN-29" value="" style="rounded=0;whiteSpace=wrap;html=1;fillColor=#070909;strokeColor=#82b366;" parent="1" vertex="1">
          <mxGeometry x="2580.33" y="430" width="380" height="200" as="geometry" />
        </mxCell>
        <mxCell id="fw-Dkt5grC2mR6McyDsN-30" value="&lt;h1 style=&quot;margin-top: 0px;&quot;&gt;Percobaan Login&lt;/h1&gt;&lt;p&gt;Percobaan Login hanya dibatasi sebanyak 3 kali. Jika percobaan lebih dari 3 kali, maka program akan ditutup.&lt;/p&gt;" style="text;html=1;whiteSpace=wrap;overflow=hidden;rounded=0;" parent="1" vertex="1">
          <mxGeometry x="2745.33" y="460" width="210" height="140" as="geometry" />
        </mxCell>
        <mxCell id="fw-Dkt5grC2mR6McyDsN-31" value="percobaan_login = 1" style="rounded=0;whiteSpace=wrap;html=1;strokeColor=#FF9933;fillColor=#000000;" parent="1" vertex="1">
          <mxGeometry x="2605.08" y="460" width="120" height="60" as="geometry" />
        </mxCell>
        <mxCell id="fw-Dkt5grC2mR6McyDsN-32" value="percobaan_login &amp;gt; 3&amp;nbsp;" style="shape=hexagon;perimeter=hexagonPerimeter2;whiteSpace=wrap;html=1;fixedSize=1;rounded=0;fillColor=#070909;strokeColor=#d6b656;" parent="1" vertex="1">
          <mxGeometry x="2590.08" y="540" width="150" height="60" as="geometry" />
        </mxCell>
        <mxCell id="fw-Dkt5grC2mR6McyDsN-34" value="" style="rounded=0;whiteSpace=wrap;html=1;fillColor=#000000;strokeColor=#d79b00;" parent="1" vertex="1">
          <mxGeometry x="2992.75" y="200" width="380" height="200" as="geometry" />
        </mxCell>
        <mxCell id="fw-Dkt5grC2mR6McyDsN-38" value="&lt;h1 style=&quot;margin-top: 0px;&quot;&gt;Menu Admin&lt;/h1&gt;&lt;p&gt;Menu admin digunakan oleh admin dengan username = &quot;donijulianto&quot;. Admin memiliki akses untuk menampilkan data penyewaan, menambahkan data penyewaan, mengubah data penyewaan dan menghapus data penyewaan&amp;nbsp;&lt;/p&gt;" style="text;html=1;whiteSpace=wrap;overflow=hidden;rounded=0;" parent="1" vertex="1">
          <mxGeometry x="3151.25" y="220" width="210" height="160" as="geometry" />
        </mxCell>
        <mxCell id="fw-Dkt5grC2mR6McyDsN-39" value="" style="rounded=0;whiteSpace=wrap;html=1;fillColor=#000000;strokeColor=#d6b656;" parent="1" vertex="1">
          <mxGeometry x="2992.75" y="435" width="380" height="200" as="geometry" />
        </mxCell>
        <mxCell id="fw-Dkt5grC2mR6McyDsN-41" value="&lt;h1 style=&quot;margin-top: 0px;&quot;&gt;Menu User&lt;/h1&gt;&lt;p style=&quot;&quot;&gt;Menu pengguna digunakan oleh pengguna untuk membuat menambahkan data penyewaannya, melihat data penyewaannya, dapat mengubahnya dan menghapus data penyewaannya sendiri.&amp;nbsp;&lt;/p&gt;" style="text;html=1;whiteSpace=wrap;overflow=hidden;rounded=0;" parent="1" vertex="1">
          <mxGeometry x="3152.5" y="455" width="210" height="160" as="geometry" />
        </mxCell>
        <mxCell id="sPpjFu0KEkCYgrgoaxfR-21" value="" style="rounded=0;whiteSpace=wrap;html=1;fillColor=#070909;strokeColor=#82b366;" parent="1" vertex="1">
          <mxGeometry x="2581.83" y="200" width="380" height="200" as="geometry" />
        </mxCell>
        <mxCell id="sPpjFu0KEkCYgrgoaxfR-23" value="&lt;h1 style=&quot;margin-top: 0px;&quot;&gt;Registrasi&lt;/h1&gt;&lt;p&gt;Registrasi untuk pengguna agar dapat mengakses sistem penyewaan lapangan bulutangkis&lt;/p&gt;" style="text;html=1;whiteSpace=wrap;overflow=hidden;rounded=0;" parent="1" vertex="1">
          <mxGeometry x="2738.58" y="240" width="210" height="140" as="geometry" />
        </mxCell>
        <mxCell id="sPpjFu0KEkCYgrgoaxfR-25" value="" style="rounded=0;whiteSpace=wrap;html=1;fillColor=#000000;strokeColor=#0e8088;" parent="1" vertex="1">
          <mxGeometry x="2582.75" y="667" width="380" height="200" as="geometry" />
        </mxCell>
        <mxCell id="sPpjFu0KEkCYgrgoaxfR-27" value="tampilkan_semua_&lt;div&gt;&lt;span style=&quot;background-color: transparent; color: light-dark(rgb(0, 0, 0), rgb(255, 255, 255));&quot;&gt;pe&lt;/span&gt;&lt;span style=&quot;background-color: transparent; color: light-dark(rgb(0, 0, 0), rgb(255, 255, 255));&quot;&gt;nyewaan()&lt;/span&gt;&lt;/div&gt;" style="shape=process;whiteSpace=wrap;html=1;backgroundOutline=1;fillColor=#070909;strokeColor=#9933FF;align=center;verticalAlign=middle;fontFamily=Helvetica;fontSize=12;fontColor=default;" parent="1" vertex="1">
          <mxGeometry x="2592.75" y="732" width="140" height="50" as="geometry" />
        </mxCell>
        <mxCell id="sPpjFu0KEkCYgrgoaxfR-28" value="&lt;h1 style=&quot;margin-top: 0px;&quot;&gt;Tampilkan Penyewaan(admin)&lt;/h1&gt;&lt;div&gt;&amp;nbsp;fungsi ini menampilkan seluruh data penyewaan&lt;/div&gt;&lt;div&gt;user atau pengguna&lt;/div&gt;" style="text;html=1;whiteSpace=wrap;overflow=hidden;rounded=0;" parent="1" vertex="1">
          <mxGeometry x="2736.45" y="664.5" width="223.55" height="195.5" as="geometry" />
        </mxCell>
        <mxCell id="sPpjFu0KEkCYgrgoaxfR-29" value="" style="rounded=0;whiteSpace=wrap;html=1;fillColor=#070909;strokeColor=#0e8088;" parent="1" vertex="1">
          <mxGeometry x="2582.75" y="897" width="380" height="200" as="geometry" />
        </mxCell>
        <mxCell id="sPpjFu0KEkCYgrgoaxfR-30" value="tambah_penyewaan&lt;div&gt;(username)&lt;/div&gt;" style="shape=process;whiteSpace=wrap;html=1;backgroundOutline=1;fillColor=#000000;strokeColor=#9933FF;align=center;verticalAlign=middle;fontFamily=Helvetica;fontSize=12;fontColor=default;" parent="1" vertex="1">
          <mxGeometry x="2592.75" y="962" width="140" height="50" as="geometry" />
        </mxCell>
        <mxCell id="sPpjFu0KEkCYgrgoaxfR-31" value="&lt;h1 style=&quot;margin-top: 0px;&quot;&gt;Tambah penyewaan(user)&lt;/h1&gt;&lt;p&gt;Fungsi ini berfungsi menambahkan data penyewaan untuk user&lt;/p&gt;" style="text;html=1;whiteSpace=wrap;overflow=hidden;rounded=0;" parent="1" vertex="1">
          <mxGeometry x="2745" y="927" width="210" height="140" as="geometry" />
        </mxCell>
        <mxCell id="sPpjFu0KEkCYgrgoaxfR-39" value="tampilan_semua_&lt;div&gt;penyewaan()&lt;/div&gt;" style="shape=process;whiteSpace=wrap;html=1;backgroundOutline=1;fillColor=#000000;strokeColor=#9933FF;align=center;verticalAlign=middle;fontFamily=Helvetica;fontSize=12;fontColor=default;" parent="1" vertex="1">
          <mxGeometry x="3002.75" y="964.5" width="140" height="50" as="geometry" />
        </mxCell>
        <mxCell id="sPpjFu0KEkCYgrgoaxfR-40" value="&lt;h1 style=&quot;margin-top: 0px;&quot;&gt;Menampilkan data user&lt;/h1&gt;&lt;p&gt;Fungsi ini berfungsi menampilkan data user&lt;/p&gt;" style="text;html=1;whiteSpace=wrap;overflow=hidden;rounded=0;" parent="1" vertex="1">
          <mxGeometry x="3155" y="929.5" width="210" height="140" as="geometry" />
        </mxCell>
        <mxCell id="sPpjFu0KEkCYgrgoaxfR-47" value="" style="rounded=0;whiteSpace=wrap;html=1;fillColor=#000000;strokeColor=#0e8088;" parent="1" vertex="1">
          <mxGeometry x="2992.75" y="664.5" width="380" height="200" as="geometry" />
        </mxCell>
        <mxCell id="sPpjFu0KEkCYgrgoaxfR-48" value="hapus_penyewaan()" style="shape=process;whiteSpace=wrap;html=1;backgroundOutline=1;fillColor=#000000;strokeColor=#9933FF;align=center;verticalAlign=middle;fontFamily=Helvetica;fontSize=12;fontColor=default;" parent="1" vertex="1">
          <mxGeometry x="3002.75" y="729.5" width="140" height="50" as="geometry" />
        </mxCell>
        <mxCell id="sPpjFu0KEkCYgrgoaxfR-49" value="&lt;h1 style=&quot;margin-top: 0px;&quot;&gt;&lt;span style=&quot;background-color: transparent; color: light-dark(rgb(0, 0, 0), rgb(255, 255, 255));&quot;&gt;hapus penyewaan(admin)&lt;/span&gt;&lt;/h1&gt;&lt;h1 style=&quot;margin-top: 0px;&quot;&gt;&lt;span style=&quot;font-size: 12px; font-weight: 400;&quot;&gt;fungsi ini digunakan untuk menghapus data penyewaan pengguna&lt;/span&gt;&lt;/h1&gt;" style="text;html=1;whiteSpace=wrap;overflow=hidden;rounded=0;" parent="1" vertex="1">
          <mxGeometry x="3144" y="667" width="217.25" height="140" as="geometry" />
        </mxCell>
        <mxCell id="sPpjFu0KEkCYgrgoaxfR-50" value="" style="rounded=0;whiteSpace=wrap;html=1;fillColor=#070909;strokeColor=#ae4132;" parent="1" vertex="1">
          <mxGeometry x="2580" y="1134.5" width="380" height="200" as="geometry" />
        </mxCell>
        <mxCell id="sPpjFu0KEkCYgrgoaxfR-53" value="ubah_penyewaan&lt;div&gt;(username)&lt;/div&gt;" style="shape=process;whiteSpace=wrap;html=1;backgroundOutline=1;fillColor=#000000;strokeColor=#9933FF;align=center;verticalAlign=middle;fontFamily=Helvetica;fontSize=12;fontColor=default;" parent="1" vertex="1">
          <mxGeometry x="2590" y="1194.5" width="140" height="50" as="geometry" />
        </mxCell>
        <mxCell id="sPpjFu0KEkCYgrgoaxfR-54" value="&lt;h1 style=&quot;margin-top: 0px;&quot;&gt;mengubah penyewaan(user)&lt;/h1&gt;&lt;p&gt;Fungsi ini berfungsi untuk mengubah data penyewaan user itu sendiri&lt;/p&gt;" style="text;html=1;whiteSpace=wrap;overflow=hidden;rounded=0;" parent="1" vertex="1">
          <mxGeometry x="2745.5" y="1169.5" width="210" height="140" as="geometry" />
        </mxCell>
        <mxCell id="wl5vKfPLSGNA0CRAG-PO-100" value="" style="rounded=0;whiteSpace=wrap;html=1;fillColor=#070909;strokeColor=#ae4132;" parent="1" vertex="1">
          <mxGeometry x="2995.58" y="1144.5" width="380" height="200" as="geometry" />
        </mxCell>
        <mxCell id="wl5vKfPLSGNA0CRAG-PO-101" value="hapus_penyewaan&lt;div&gt;(username)&lt;/div&gt;" style="shape=process;whiteSpace=wrap;html=1;backgroundOutline=1;fillColor=#000000;strokeColor=#9933FF;align=center;verticalAlign=middle;fontFamily=Helvetica;fontSize=12;fontColor=default;" parent="1" vertex="1">
          <mxGeometry x="3005.58" y="1194.5" width="176.12" height="60" as="geometry" />
        </mxCell>
        <mxCell id="wl5vKfPLSGNA0CRAG-PO-102" value="&lt;h1 style=&quot;margin-top: 0px;&quot;&gt;Menghapus data&lt;/h1&gt;&lt;p&gt;Fungsi ini berfungsi menghapus data penyewaan user itu sendiri.&lt;/p&gt;" style="text;html=1;whiteSpace=wrap;overflow=hidden;rounded=0;" parent="1" vertex="1">
          <mxGeometry x="3191.71" y="1169.5" width="183.87" height="130" as="geometry" />
        </mxCell>
        <mxCell id="8QDin1UegqGe8droCSOD-6" style="edgeStyle=orthogonalEdgeStyle;rounded=0;orthogonalLoop=1;jettySize=auto;html=1;exitX=0.5;exitY=1;exitDx=0;exitDy=0;entryX=0.5;entryY=0;entryDx=0;entryDy=0;" parent="1" source="8QDin1UegqGe8droCSOD-3" target="t_WGj7whDtWNZ_SXQKLY-1" edge="1">
          <mxGeometry relative="1" as="geometry" />
        </mxCell>
        <mxCell id="8QDin1UegqGe8droCSOD-100" value="True" style="edgeLabel;html=1;align=center;verticalAlign=middle;resizable=0;points=[];" parent="8QDin1UegqGe8droCSOD-6" vertex="1" connectable="0">
          <mxGeometry x="-0.2" y="-1" relative="1" as="geometry">
            <mxPoint as="offset" />
          </mxGeometry>
        </mxCell>
        <mxCell id="8QDin1UegqGe8droCSOD-101" style="edgeStyle=orthogonalEdgeStyle;rounded=0;orthogonalLoop=1;jettySize=auto;html=1;exitX=1;exitY=0.5;exitDx=0;exitDy=0;entryX=1.008;entryY=0.589;entryDx=0;entryDy=0;entryPerimeter=0;" parent="1" source="8QDin1UegqGe8droCSOD-3" target="8QDin1UegqGe8droCSOD-102" edge="1">
          <mxGeometry relative="1" as="geometry">
            <mxPoint x="520" y="1642" as="targetPoint" />
            <Array as="points">
              <mxPoint x="1630" y="195" />
              <mxPoint x="1630" y="1517" />
            </Array>
          </mxGeometry>
        </mxCell>
        <mxCell id="8QDin1UegqGe8droCSOD-111" value="False" style="edgeLabel;html=1;align=center;verticalAlign=middle;resizable=0;points=[];" parent="8QDin1UegqGe8droCSOD-101" vertex="1" connectable="0">
          <mxGeometry x="-0.9065" y="-5" relative="1" as="geometry">
            <mxPoint x="1" as="offset" />
          </mxGeometry>
        </mxCell>
        <mxCell id="8QDin1UegqGe8droCSOD-3" value="while running:&lt;div&gt;True&lt;/div&gt;" style="shape=hexagon;perimeter=hexagonPerimeter2;whiteSpace=wrap;html=1;fixedSize=1;strokeColor=#6666FF;" parent="1" vertex="1">
          <mxGeometry x="388.08000000000004" y="170" width="103.83" height="50" as="geometry" />
        </mxCell>
        <mxCell id="8QDin1UegqGe8droCSOD-10" value="" style="edgeStyle=orthogonalEdgeStyle;rounded=0;orthogonalLoop=1;jettySize=auto;html=1;" parent="1" source="8QDin1UegqGe8droCSOD-7" edge="1">
          <mxGeometry relative="1" as="geometry">
            <mxPoint x="438.7391304347825" y="950" as="targetPoint" />
          </mxGeometry>
        </mxCell>
        <mxCell id="8QDin1UegqGe8droCSOD-41" value="True" style="edgeLabel;html=1;align=center;verticalAlign=middle;resizable=0;points=[];" parent="8QDin1UegqGe8droCSOD-10" vertex="1" connectable="0">
          <mxGeometry x="-0.1625" y="-2" relative="1" as="geometry">
            <mxPoint as="offset" />
          </mxGeometry>
        </mxCell>
        <mxCell id="8QDin1UegqGe8droCSOD-43" value="" style="edgeStyle=orthogonalEdgeStyle;rounded=0;orthogonalLoop=1;jettySize=auto;html=1;" parent="1" source="8QDin1UegqGe8droCSOD-7" edge="1">
          <mxGeometry relative="1" as="geometry">
            <mxPoint x="560" y="725" as="targetPoint" />
          </mxGeometry>
        </mxCell>
        <mxCell id="8QDin1UegqGe8droCSOD-44" value="else" style="edgeLabel;html=1;align=center;verticalAlign=middle;resizable=0;points=[];" parent="8QDin1UegqGe8droCSOD-43" vertex="1" connectable="0">
          <mxGeometry x="-0.175" y="2" relative="1" as="geometry">
            <mxPoint as="offset" />
          </mxGeometry>
        </mxCell>
        <mxCell id="8QDin1UegqGe8droCSOD-7" value="if role == admin" style="rhombus;whiteSpace=wrap;html=1;fillColor=#000000;strokeColor=#FF9933;rounded=0;" parent="1" vertex="1">
          <mxGeometry x="400.01" y="680" width="79.99" height="90" as="geometry" />
        </mxCell>
        <mxCell id="8QDin1UegqGe8droCSOD-14" value="" style="edgeStyle=orthogonalEdgeStyle;rounded=0;orthogonalLoop=1;jettySize=auto;html=1;" parent="1" target="8QDin1UegqGe8droCSOD-13" edge="1">
          <mxGeometry relative="1" as="geometry">
            <mxPoint x="438.72500000000014" y="1010" as="sourcePoint" />
          </mxGeometry>
        </mxCell>
        <mxCell id="8QDin1UegqGe8droCSOD-12" value="" style="endArrow=classic;html=1;rounded=0;" parent="1" edge="1">
          <mxGeometry width="50" height="50" relative="1" as="geometry">
            <mxPoint x="469.66" y="320" as="sourcePoint" />
            <mxPoint x="524.83" y="320.41" as="targetPoint" />
          </mxGeometry>
        </mxCell>
        <mxCell id="8QDin1UegqGe8droCSOD-18" value="" style="edgeStyle=orthogonalEdgeStyle;rounded=0;orthogonalLoop=1;jettySize=auto;html=1;" parent="1" source="8QDin1UegqGe8droCSOD-13" target="8QDin1UegqGe8droCSOD-17" edge="1">
          <mxGeometry relative="1" as="geometry" />
        </mxCell>
        <mxCell id="8QDin1UegqGe8droCSOD-30" value="False" style="edgeLabel;html=1;align=center;verticalAlign=middle;resizable=0;points=[];" parent="8QDin1UegqGe8droCSOD-18" vertex="1" connectable="0">
          <mxGeometry x="0.0502" y="-2" relative="1" as="geometry">
            <mxPoint as="offset" />
          </mxGeometry>
        </mxCell>
        <mxCell id="8QDin1UegqGe8droCSOD-22" value="" style="edgeStyle=orthogonalEdgeStyle;rounded=0;orthogonalLoop=1;jettySize=auto;html=1;" parent="1" source="8QDin1UegqGe8droCSOD-13" target="8QDin1UegqGe8droCSOD-21" edge="1">
          <mxGeometry relative="1" as="geometry" />
        </mxCell>
        <mxCell id="8QDin1UegqGe8droCSOD-27" value="True" style="edgeLabel;html=1;align=center;verticalAlign=middle;resizable=0;points=[];" parent="8QDin1UegqGe8droCSOD-22" vertex="1" connectable="0">
          <mxGeometry x="-0.3364" y="-2" relative="1" as="geometry">
            <mxPoint y="-1" as="offset" />
          </mxGeometry>
        </mxCell>
        <mxCell id="8QDin1UegqGe8droCSOD-13" value="if menu&amp;nbsp;&lt;div&gt;admin == 1&lt;/div&gt;" style="rhombus;whiteSpace=wrap;html=1;fillColor=#000000;strokeColor=#FF9933;rounded=0;" parent="1" vertex="1">
          <mxGeometry x="393.72" y="1054.5" width="90.01" height="110" as="geometry" />
        </mxCell>
        <mxCell id="8QDin1UegqGe8droCSOD-20" value="" style="edgeStyle=orthogonalEdgeStyle;rounded=0;orthogonalLoop=1;jettySize=auto;html=1;" parent="1" source="8QDin1UegqGe8droCSOD-17" target="8QDin1UegqGe8droCSOD-19" edge="1">
          <mxGeometry relative="1" as="geometry" />
        </mxCell>
        <mxCell id="8QDin1UegqGe8droCSOD-31" value="False" style="edgeLabel;html=1;align=center;verticalAlign=middle;resizable=0;points=[];" parent="8QDin1UegqGe8droCSOD-20" vertex="1" connectable="0">
          <mxGeometry x="-0.3875" y="-1" relative="1" as="geometry">
            <mxPoint x="-1" as="offset" />
          </mxGeometry>
        </mxCell>
        <mxCell id="8QDin1UegqGe8droCSOD-24" value="" style="edgeStyle=orthogonalEdgeStyle;rounded=0;orthogonalLoop=1;jettySize=auto;html=1;" parent="1" source="8QDin1UegqGe8droCSOD-17" target="8QDin1UegqGe8droCSOD-23" edge="1">
          <mxGeometry relative="1" as="geometry" />
        </mxCell>
        <mxCell id="8QDin1UegqGe8droCSOD-28" value="True" style="edgeLabel;html=1;align=center;verticalAlign=middle;resizable=0;points=[];" parent="8QDin1UegqGe8droCSOD-24" vertex="1" connectable="0">
          <mxGeometry x="-0.1619" y="2" relative="1" as="geometry">
            <mxPoint y="-1" as="offset" />
          </mxGeometry>
        </mxCell>
        <mxCell id="8QDin1UegqGe8droCSOD-17" value="if menu&amp;nbsp;&lt;div&gt;admin == 2&lt;/div&gt;" style="rhombus;whiteSpace=wrap;html=1;fillColor=#000000;strokeColor=#FF9933;rounded=0;" parent="1" vertex="1">
          <mxGeometry x="563.73" y="1054.5" width="90.01" height="110" as="geometry" />
        </mxCell>
        <mxCell id="8QDin1UegqGe8droCSOD-26" value="" style="edgeStyle=orthogonalEdgeStyle;rounded=0;orthogonalLoop=1;jettySize=auto;html=1;" parent="1" source="8QDin1UegqGe8droCSOD-19" target="8QDin1UegqGe8droCSOD-25" edge="1">
          <mxGeometry relative="1" as="geometry" />
        </mxCell>
        <mxCell id="8QDin1UegqGe8droCSOD-29" value="True" style="edgeLabel;html=1;align=center;verticalAlign=middle;resizable=0;points=[];" parent="8QDin1UegqGe8droCSOD-26" vertex="1" connectable="0">
          <mxGeometry x="-0.2973" y="-1" relative="1" as="geometry">
            <mxPoint y="-1" as="offset" />
          </mxGeometry>
        </mxCell>
        <mxCell id="8QDin1UegqGe8droCSOD-33" value="" style="edgeStyle=orthogonalEdgeStyle;rounded=0;orthogonalLoop=1;jettySize=auto;html=1;" parent="1" source="8QDin1UegqGe8droCSOD-19" target="8QDin1UegqGe8droCSOD-32" edge="1">
          <mxGeometry relative="1" as="geometry" />
        </mxCell>
        <mxCell id="8QDin1UegqGe8droCSOD-35" value="False" style="edgeLabel;html=1;align=center;verticalAlign=middle;resizable=0;points=[];" parent="8QDin1UegqGe8droCSOD-33" vertex="1" connectable="0">
          <mxGeometry x="-0.3525" y="1" relative="1" as="geometry">
            <mxPoint as="offset" />
          </mxGeometry>
        </mxCell>
        <mxCell id="8QDin1UegqGe8droCSOD-19" value="if menu&amp;nbsp;&lt;div&gt;admin == 3&lt;/div&gt;" style="rhombus;whiteSpace=wrap;html=1;fillColor=#000000;strokeColor=#FF9933;rounded=0;" parent="1" vertex="1">
          <mxGeometry x="733.74" y="1054.5" width="90.01" height="110" as="geometry" />
        </mxCell>
        <mxCell id="8QDin1UegqGe8droCSOD-40" style="edgeStyle=orthogonalEdgeStyle;rounded=0;orthogonalLoop=1;jettySize=auto;html=1;exitX=0.5;exitY=1;exitDx=0;exitDy=0;" parent="1" source="8QDin1UegqGe8droCSOD-21" edge="1">
          <mxGeometry relative="1" as="geometry">
            <mxPoint x="439.66666666666674" y="1250" as="targetPoint" />
          </mxGeometry>
        </mxCell>
        <mxCell id="8QDin1UegqGe8droCSOD-47" style="edgeStyle=orthogonalEdgeStyle;rounded=0;orthogonalLoop=1;jettySize=auto;html=1;exitX=0.5;exitY=1;exitDx=0;exitDy=0;" parent="1" source="8QDin1UegqGe8droCSOD-21" edge="1">
          <mxGeometry relative="1" as="geometry">
            <mxPoint x="440" y="1410" as="targetPoint" />
          </mxGeometry>
        </mxCell>
        <mxCell id="8QDin1UegqGe8droCSOD-21" value="tampilkan_semua&lt;div&gt;_penyewaan()&lt;/div&gt;" style="shape=process;whiteSpace=wrap;html=1;backgroundOutline=1;fillColor=#000000;strokeColor=#FF9933;rounded=0;" parent="1" vertex="1">
          <mxGeometry x="378.725" y="1219.5" width="120" height="60" as="geometry" />
        </mxCell>
        <mxCell id="8QDin1UegqGe8droCSOD-39" style="edgeStyle=orthogonalEdgeStyle;rounded=0;orthogonalLoop=1;jettySize=auto;html=1;exitX=0.5;exitY=1;exitDx=0;exitDy=0;" parent="1" source="8QDin1UegqGe8droCSOD-23" edge="1">
          <mxGeometry relative="1" as="geometry">
            <mxPoint x="610" y="1250" as="targetPoint" />
          </mxGeometry>
        </mxCell>
        <mxCell id="8QDin1UegqGe8droCSOD-46" style="edgeStyle=orthogonalEdgeStyle;rounded=0;orthogonalLoop=1;jettySize=auto;html=1;exitX=0.5;exitY=1;exitDx=0;exitDy=0;" parent="1" source="8QDin1UegqGe8droCSOD-23" edge="1">
          <mxGeometry relative="1" as="geometry">
            <mxPoint x="608.9230769230769" y="1410" as="targetPoint" />
          </mxGeometry>
        </mxCell>
        <mxCell id="8QDin1UegqGe8droCSOD-23" value="Hapus_&lt;div&gt;penyewaan&lt;/div&gt;&lt;div&gt;(username=&quot;admin&quot;)&lt;/div&gt;" style="shape=process;whiteSpace=wrap;html=1;backgroundOutline=1;fillColor=#000000;strokeColor=#FF9933;rounded=0;" parent="1" vertex="1">
          <mxGeometry x="533.73" y="1217" width="150.01" height="60" as="geometry" />
        </mxCell>
        <mxCell id="8QDin1UegqGe8droCSOD-38" style="edgeStyle=orthogonalEdgeStyle;rounded=0;orthogonalLoop=1;jettySize=auto;html=1;exitX=0.5;exitY=1;exitDx=0;exitDy=0;" parent="1" source="8QDin1UegqGe8droCSOD-25" edge="1">
          <mxGeometry relative="1" as="geometry">
            <mxPoint x="779.6666666666667" y="1250" as="targetPoint" />
          </mxGeometry>
        </mxCell>
        <mxCell id="8QDin1UegqGe8droCSOD-45" style="edgeStyle=orthogonalEdgeStyle;rounded=0;orthogonalLoop=1;jettySize=auto;html=1;exitX=0.5;exitY=1;exitDx=0;exitDy=0;" parent="1" source="8QDin1UegqGe8droCSOD-25" edge="1">
          <mxGeometry relative="1" as="geometry">
            <mxPoint x="779.6923076923076" y="1420" as="targetPoint" />
          </mxGeometry>
        </mxCell>
        <mxCell id="8QDin1UegqGe8droCSOD-25" value="logged_in = False" style="rounded=0;whiteSpace=wrap;html=1;fillColor=#000000;strokeColor=#FF9933;" parent="1" vertex="1">
          <mxGeometry x="718.75" y="1220" width="121.26" height="60" as="geometry" />
        </mxCell>
        <mxCell id="8QDin1UegqGe8droCSOD-36" style="edgeStyle=orthogonalEdgeStyle;rounded=0;orthogonalLoop=1;jettySize=auto;html=1;exitX=1;exitY=0.5;exitDx=0;exitDy=0;entryX=0;entryY=0.5;entryDx=0;entryDy=0;" parent="1" source="8QDin1UegqGe8droCSOD-32" target="8QDin1UegqGe8droCSOD-3" edge="1">
          <mxGeometry relative="1" as="geometry">
            <mxPoint x="230" y="190" as="targetPoint" />
            <Array as="points">
              <mxPoint x="1060" y="1109" />
              <mxPoint x="1060" y="1430" />
              <mxPoint x="210" y="1430" />
              <mxPoint x="210" y="190" />
              <mxPoint x="388" y="190" />
            </Array>
          </mxGeometry>
        </mxCell>
        <mxCell id="8QDin1UegqGe8droCSOD-32" value="output &quot;pilihan&lt;div&gt;tidak valid&quot;&lt;/div&gt;" style="shape=parallelogram;perimeter=parallelogramPerimeter;whiteSpace=wrap;html=1;fixedSize=1;fillColor=#000000;strokeColor=#FF9933;rounded=0;" parent="1" vertex="1">
          <mxGeometry x="888.755" y="1079.5" width="120" height="60" as="geometry" />
        </mxCell>
        <mxCell id="8QDin1UegqGe8droCSOD-34" value="" style="endArrow=classic;html=1;rounded=0;entryX=0.25;entryY=0.2;entryDx=0;entryDy=0;entryPerimeter=0;" parent="1" edge="1">
          <mxGeometry width="50" height="50" relative="1" as="geometry">
            <mxPoint x="963.32" y="1132" as="sourcePoint" />
            <mxPoint x="1003.32" y="1132" as="targetPoint" />
          </mxGeometry>
        </mxCell>
        <mxCell id="8QDin1UegqGe8droCSOD-51" value="" style="edgeStyle=orthogonalEdgeStyle;rounded=0;orthogonalLoop=1;jettySize=auto;html=1;" parent="1" target="8QDin1UegqGe8droCSOD-50" edge="1">
          <mxGeometry relative="1" as="geometry">
            <mxPoint x="608.7391304347827" y="755" as="sourcePoint" />
          </mxGeometry>
        </mxCell>
        <mxCell id="8QDin1UegqGe8droCSOD-52" value="True" style="edgeLabel;html=1;align=center;verticalAlign=middle;resizable=0;points=[];" parent="8QDin1UegqGe8droCSOD-51" vertex="1" connectable="0">
          <mxGeometry x="0.0989" y="-1" relative="1" as="geometry">
            <mxPoint as="offset" />
          </mxGeometry>
        </mxCell>
        <mxCell id="8QDin1UegqGe8droCSOD-54" value="" style="edgeStyle=orthogonalEdgeStyle;rounded=0;orthogonalLoop=1;jettySize=auto;html=1;" parent="1" source="8QDin1UegqGe8droCSOD-50" target="8QDin1UegqGe8droCSOD-53" edge="1">
          <mxGeometry relative="1" as="geometry" />
        </mxCell>
        <mxCell id="8QDin1UegqGe8droCSOD-55" value="True" style="edgeLabel;html=1;align=center;verticalAlign=middle;resizable=0;points=[];" parent="8QDin1UegqGe8droCSOD-54" vertex="1" connectable="0">
          <mxGeometry x="-0.248" y="-1" relative="1" as="geometry">
            <mxPoint as="offset" />
          </mxGeometry>
        </mxCell>
        <mxCell id="8QDin1UegqGe8droCSOD-57" value="" style="edgeStyle=orthogonalEdgeStyle;rounded=0;orthogonalLoop=1;jettySize=auto;html=1;" parent="1" source="8QDin1UegqGe8droCSOD-50" target="8QDin1UegqGe8droCSOD-56" edge="1">
          <mxGeometry relative="1" as="geometry" />
        </mxCell>
        <mxCell id="8QDin1UegqGe8droCSOD-61" value="False" style="edgeLabel;html=1;align=center;verticalAlign=middle;resizable=0;points=[];" parent="8QDin1UegqGe8droCSOD-57" vertex="1" connectable="0">
          <mxGeometry x="-0.0866" y="-4" relative="1" as="geometry">
            <mxPoint as="offset" />
          </mxGeometry>
        </mxCell>
        <mxCell id="8QDin1UegqGe8droCSOD-50" value="user_menu&lt;div&gt;==1&lt;/div&gt;" style="rhombus;whiteSpace=wrap;html=1;" parent="1" vertex="1">
          <mxGeometry x="563.1" y="810" width="91.26" height="89.5" as="geometry" />
        </mxCell>
        <mxCell id="8QDin1UegqGe8droCSOD-95" style="edgeStyle=orthogonalEdgeStyle;rounded=0;orthogonalLoop=1;jettySize=auto;html=1;exitX=0.5;exitY=1;exitDx=0;exitDy=0;" parent="1" source="8QDin1UegqGe8droCSOD-53" edge="1">
          <mxGeometry relative="1" as="geometry">
            <mxPoint x="1220" y="1080" as="targetPoint" />
            <Array as="points">
              <mxPoint x="609" y="1040" />
              <mxPoint x="1161" y="1040" />
              <mxPoint x="1161" y="1080" />
            </Array>
          </mxGeometry>
        </mxCell>
        <mxCell id="8QDin1UegqGe8droCSOD-53" value="tambah_penya&lt;span style=&quot;background-color: transparent; color: light-dark(rgb(0, 0, 0), rgb(255, 255, 255));&quot;&gt;waan&lt;/span&gt;&lt;div&gt;(username)&lt;br&gt;&lt;div&gt;&lt;div&gt;&lt;br&gt;&lt;/div&gt;&lt;/div&gt;&lt;/div&gt;" style="shape=process;whiteSpace=wrap;html=1;backgroundOutline=1;" parent="1" vertex="1">
          <mxGeometry x="538.1" y="940" width="141.27" height="60" as="geometry" />
        </mxCell>
        <mxCell id="8QDin1UegqGe8droCSOD-64" value="" style="edgeStyle=orthogonalEdgeStyle;rounded=0;orthogonalLoop=1;jettySize=auto;html=1;" parent="1" source="8QDin1UegqGe8droCSOD-56" target="8QDin1UegqGe8droCSOD-63" edge="1">
          <mxGeometry relative="1" as="geometry" />
        </mxCell>
        <mxCell id="8QDin1UegqGe8droCSOD-67" value="True" style="edgeLabel;html=1;align=center;verticalAlign=middle;resizable=0;points=[];" parent="8QDin1UegqGe8droCSOD-64" vertex="1" connectable="0">
          <mxGeometry x="-0.0245" relative="1" as="geometry">
            <mxPoint as="offset" />
          </mxGeometry>
        </mxCell>
        <mxCell id="8QDin1UegqGe8droCSOD-66" value="" style="edgeStyle=orthogonalEdgeStyle;rounded=0;orthogonalLoop=1;jettySize=auto;html=1;" parent="1" source="8QDin1UegqGe8droCSOD-56" target="8QDin1UegqGe8droCSOD-65" edge="1">
          <mxGeometry relative="1" as="geometry" />
        </mxCell>
        <mxCell id="8QDin1UegqGe8droCSOD-68" value="False" style="edgeLabel;html=1;align=center;verticalAlign=middle;resizable=0;points=[];" parent="8QDin1UegqGe8droCSOD-66" vertex="1" connectable="0">
          <mxGeometry x="-0.2443" y="2" relative="1" as="geometry">
            <mxPoint as="offset" />
          </mxGeometry>
        </mxCell>
        <mxCell id="8QDin1UegqGe8droCSOD-56" value="user_menu&lt;div&gt;==2&lt;/div&gt;" style="rhombus;whiteSpace=wrap;html=1;" parent="1" vertex="1">
          <mxGeometry x="747.33" y="810" width="91.26" height="89.5" as="geometry" />
        </mxCell>
        <mxCell id="8QDin1UegqGe8droCSOD-96" style="edgeStyle=orthogonalEdgeStyle;rounded=0;orthogonalLoop=1;jettySize=auto;html=1;exitX=0.5;exitY=1;exitDx=0;exitDy=0;" parent="1" source="8QDin1UegqGe8droCSOD-63" edge="1">
          <mxGeometry relative="1" as="geometry">
            <mxPoint x="793" y="1030" as="targetPoint" />
          </mxGeometry>
        </mxCell>
        <mxCell id="8QDin1UegqGe8droCSOD-63" value="tampilkan_semua&lt;div&gt;_penyewaan&lt;/div&gt;&lt;div&gt;()&lt;/div&gt;" style="shape=process;whiteSpace=wrap;html=1;backgroundOutline=1;" parent="1" vertex="1">
          <mxGeometry x="733.74" y="940" width="122.96" height="60" as="geometry" />
        </mxCell>
        <mxCell id="8QDin1UegqGe8droCSOD-70" value="" style="edgeStyle=orthogonalEdgeStyle;rounded=0;orthogonalLoop=1;jettySize=auto;html=1;" parent="1" source="8QDin1UegqGe8droCSOD-65" target="8QDin1UegqGe8droCSOD-69" edge="1">
          <mxGeometry relative="1" as="geometry" />
        </mxCell>
        <mxCell id="8QDin1UegqGe8droCSOD-71" value="True" style="edgeLabel;html=1;align=center;verticalAlign=middle;resizable=0;points=[];" parent="8QDin1UegqGe8droCSOD-70" vertex="1" connectable="0">
          <mxGeometry x="-0.0692" y="2" relative="1" as="geometry">
            <mxPoint as="offset" />
          </mxGeometry>
        </mxCell>
        <mxCell id="8QDin1UegqGe8droCSOD-73" value="" style="edgeStyle=orthogonalEdgeStyle;rounded=0;orthogonalLoop=1;jettySize=auto;html=1;" parent="1" source="8QDin1UegqGe8droCSOD-65" target="8QDin1UegqGe8droCSOD-72" edge="1">
          <mxGeometry relative="1" as="geometry" />
        </mxCell>
        <mxCell id="8QDin1UegqGe8droCSOD-74" value="True" style="edgeLabel;html=1;align=center;verticalAlign=middle;resizable=0;points=[];" parent="8QDin1UegqGe8droCSOD-73" vertex="1" connectable="0">
          <mxGeometry x="-0.0803" y="-1" relative="1" as="geometry">
            <mxPoint as="offset" />
          </mxGeometry>
        </mxCell>
        <mxCell id="8QDin1UegqGe8droCSOD-65" value="user_menu&lt;div&gt;== 3&lt;/div&gt;" style="rhombus;whiteSpace=wrap;html=1;" parent="1" vertex="1">
          <mxGeometry x="918.59" y="810" width="91.26" height="89.5" as="geometry" />
        </mxCell>
        <mxCell id="8QDin1UegqGe8droCSOD-97" style="edgeStyle=orthogonalEdgeStyle;rounded=0;orthogonalLoop=1;jettySize=auto;html=1;exitX=0.5;exitY=1;exitDx=0;exitDy=0;" parent="1" source="8QDin1UegqGe8droCSOD-69" edge="1">
          <mxGeometry relative="1" as="geometry">
            <mxPoint x="964" y="1030" as="targetPoint" />
          </mxGeometry>
        </mxCell>
        <mxCell id="8QDin1UegqGe8droCSOD-69" value="ubah_penyewaan&lt;div&gt;(username)&lt;/div&gt;" style="shape=process;whiteSpace=wrap;html=1;backgroundOutline=1;" parent="1" vertex="1">
          <mxGeometry x="902.11" y="940" width="124.22" height="60" as="geometry" />
        </mxCell>
        <mxCell id="8QDin1UegqGe8droCSOD-76" value="" style="edgeStyle=orthogonalEdgeStyle;rounded=0;orthogonalLoop=1;jettySize=auto;html=1;" parent="1" source="8QDin1UegqGe8droCSOD-72" target="8QDin1UegqGe8droCSOD-75" edge="1">
          <mxGeometry relative="1" as="geometry" />
        </mxCell>
        <mxCell id="8QDin1UegqGe8droCSOD-77" value="True" style="edgeLabel;html=1;align=center;verticalAlign=middle;resizable=0;points=[];" parent="8QDin1UegqGe8droCSOD-76" vertex="1" connectable="0">
          <mxGeometry x="-0.2012" relative="1" as="geometry">
            <mxPoint as="offset" />
          </mxGeometry>
        </mxCell>
        <mxCell id="8QDin1UegqGe8droCSOD-79" value="" style="edgeStyle=orthogonalEdgeStyle;rounded=0;orthogonalLoop=1;jettySize=auto;html=1;" parent="1" source="8QDin1UegqGe8droCSOD-72" target="8QDin1UegqGe8droCSOD-78" edge="1">
          <mxGeometry relative="1" as="geometry" />
        </mxCell>
        <mxCell id="8QDin1UegqGe8droCSOD-87" value="False" style="edgeLabel;html=1;align=center;verticalAlign=middle;resizable=0;points=[];" parent="8QDin1UegqGe8droCSOD-79" vertex="1" connectable="0">
          <mxGeometry x="-0.2118" y="-1" relative="1" as="geometry">
            <mxPoint as="offset" />
          </mxGeometry>
        </mxCell>
        <mxCell id="8QDin1UegqGe8droCSOD-72" value="user_menu&lt;div&gt;== 4&lt;/div&gt;" style="rhombus;whiteSpace=wrap;html=1;" parent="1" vertex="1">
          <mxGeometry x="1089.85" y="810" width="91.26" height="89.5" as="geometry" />
        </mxCell>
        <mxCell id="8QDin1UegqGe8droCSOD-98" style="edgeStyle=orthogonalEdgeStyle;rounded=0;orthogonalLoop=1;jettySize=auto;html=1;exitX=0.5;exitY=1;exitDx=0;exitDy=0;" parent="1" source="8QDin1UegqGe8droCSOD-75" edge="1">
          <mxGeometry relative="1" as="geometry">
            <mxPoint x="1135" y="1030" as="targetPoint" />
          </mxGeometry>
        </mxCell>
        <mxCell id="8QDin1UegqGe8droCSOD-75" value="hapus_penyewaan&lt;div&gt;(username)&lt;/div&gt;" style="shape=process;whiteSpace=wrap;html=1;backgroundOutline=1;" parent="1" vertex="1">
          <mxGeometry x="1068.22" y="940" width="134.52" height="60" as="geometry" />
        </mxCell>
        <mxCell id="8QDin1UegqGe8droCSOD-83" value="" style="edgeStyle=orthogonalEdgeStyle;rounded=0;orthogonalLoop=1;jettySize=auto;html=1;" parent="1" source="8QDin1UegqGe8droCSOD-78" target="8QDin1UegqGe8droCSOD-82" edge="1">
          <mxGeometry relative="1" as="geometry" />
        </mxCell>
        <mxCell id="8QDin1UegqGe8droCSOD-88" value="True" style="edgeLabel;html=1;align=center;verticalAlign=middle;resizable=0;points=[];" parent="8QDin1UegqGe8droCSOD-83" vertex="1" connectable="0">
          <mxGeometry x="-0.4631" y="1" relative="1" as="geometry">
            <mxPoint as="offset" />
          </mxGeometry>
        </mxCell>
        <mxCell id="8QDin1UegqGe8droCSOD-85" value="" style="edgeStyle=orthogonalEdgeStyle;rounded=0;orthogonalLoop=1;jettySize=auto;html=1;" parent="1" source="8QDin1UegqGe8droCSOD-78" target="8QDin1UegqGe8droCSOD-84" edge="1">
          <mxGeometry relative="1" as="geometry" />
        </mxCell>
        <mxCell id="8QDin1UegqGe8droCSOD-86" value="False" style="edgeLabel;html=1;align=center;verticalAlign=middle;resizable=0;points=[];" parent="8QDin1UegqGe8droCSOD-85" vertex="1" connectable="0">
          <mxGeometry x="-0.1327" y="3" relative="1" as="geometry">
            <mxPoint x="-4" as="offset" />
          </mxGeometry>
        </mxCell>
        <mxCell id="8QDin1UegqGe8droCSOD-78" value="user_menu&lt;div&gt;== 5&lt;/div&gt;" style="rhombus;whiteSpace=wrap;html=1;" parent="1" vertex="1">
          <mxGeometry x="1261.11" y="810" width="91.26" height="89.5" as="geometry" />
        </mxCell>
        <mxCell id="8QDin1UegqGe8droCSOD-99" style="edgeStyle=orthogonalEdgeStyle;rounded=0;orthogonalLoop=1;jettySize=auto;html=1;exitX=0.5;exitY=1;exitDx=0;exitDy=0;" parent="1" source="8QDin1UegqGe8droCSOD-82" edge="1">
          <mxGeometry relative="1" as="geometry">
            <mxPoint x="1307" y="1030" as="targetPoint" />
          </mxGeometry>
        </mxCell>
        <mxCell id="8QDin1UegqGe8droCSOD-82" value="logged_in = false" style="whiteSpace=wrap;html=1;" parent="1" vertex="1">
          <mxGeometry x="1246.74" y="940" width="120" height="60" as="geometry" />
        </mxCell>
        <mxCell id="8QDin1UegqGe8droCSOD-94" style="edgeStyle=orthogonalEdgeStyle;rounded=0;orthogonalLoop=1;jettySize=auto;html=1;exitX=0.5;exitY=1;exitDx=0;exitDy=0;" parent="1" source="8QDin1UegqGe8droCSOD-84" edge="1">
          <mxGeometry relative="1" as="geometry">
            <mxPoint x="1060" y="1190" as="targetPoint" />
            <Array as="points">
              <mxPoint x="1478" y="1037" />
              <mxPoint x="1220" y="1037" />
              <mxPoint x="1220" y="1190" />
            </Array>
          </mxGeometry>
        </mxCell>
        <mxCell id="8QDin1UegqGe8droCSOD-84" value="output &quot;pilihan&lt;div&gt;&amp;nbsp;user tidak valid&quot;&lt;/div&gt;" style="shape=parallelogram;perimeter=parallelogramPerimeter;whiteSpace=wrap;html=1;fixedSize=1;" parent="1" vertex="1">
          <mxGeometry x="1418" y="824.75" width="120" height="60" as="geometry" />
        </mxCell>
        <mxCell id="8QDin1UegqGe8droCSOD-102" value="END" style="ellipse;whiteSpace=wrap;html=1;" parent="1" vertex="1">
          <mxGeometry x="381.91" y="1470" width="110" height="80" as="geometry" />
        </mxCell>
        <mxCell id="8QDin1UegqGe8droCSOD-106" value="registrasi()" style="shape=process;whiteSpace=wrap;html=1;backgroundOutline=1;" parent="1" vertex="1">
          <mxGeometry x="2592.75" y="265" width="120" height="60" as="geometry" />
        </mxCell>
        <mxCell id="8QDin1UegqGe8droCSOD-107" value="menu_ pengguna()" style="shape=process;whiteSpace=wrap;html=1;backgroundOutline=1;" parent="1" vertex="1">
          <mxGeometry x="3012.75" y="500" width="120" height="60" as="geometry" />
        </mxCell>
        <mxCell id="8QDin1UegqGe8droCSOD-108" value="menu_admin()" style="shape=process;whiteSpace=wrap;html=1;backgroundOutline=1;" parent="1" vertex="1">
          <mxGeometry x="3009" y="280" width="120" height="60" as="geometry" />
        </mxCell>
        <mxCell id="8QDin1UegqGe8droCSOD-109" value="menu_user()" style="shape=process;whiteSpace=wrap;html=1;backgroundOutline=1;" parent="1" vertex="1">
          <mxGeometry x="548.73" y="690" width="120" height="60" as="geometry" />
        </mxCell>
        <mxCell id="8QDin1UegqGe8droCSOD-110" value="menu_admin" style="shape=process;whiteSpace=wrap;html=1;backgroundOutline=1;" parent="1" vertex="1">
          <mxGeometry x="380" y="940" width="120" height="60" as="geometry" />
        </mxCell>
        <mxCell id="8QDin1UegqGe8droCSOD-141" value="" style="edgeStyle=orthogonalEdgeStyle;rounded=0;orthogonalLoop=1;jettySize=auto;html=1;" parent="1" source="8QDin1UegqGe8droCSOD-115" target="8QDin1UegqGe8droCSOD-140" edge="1">
          <mxGeometry relative="1" as="geometry" />
        </mxCell>
        <mxCell id="8QDin1UegqGe8droCSOD-115" value="registrasi()" style="shape=process;whiteSpace=wrap;html=1;backgroundOutline=1;" parent="1" vertex="1">
          <mxGeometry x="550" y="2090" width="120" height="60" as="geometry" />
        </mxCell>
        <mxCell id="8QDin1UegqGe8droCSOD-119" value="" style="edgeStyle=orthogonalEdgeStyle;rounded=0;orthogonalLoop=1;jettySize=auto;html=1;" parent="1" source="8QDin1UegqGe8droCSOD-116" target="8QDin1UegqGe8droCSOD-118" edge="1">
          <mxGeometry relative="1" as="geometry" />
        </mxCell>
        <mxCell id="8QDin1UegqGe8droCSOD-128" value="True" style="edgeLabel;html=1;align=center;verticalAlign=middle;resizable=0;points=[];" parent="8QDin1UegqGe8droCSOD-119" vertex="1" connectable="0">
          <mxGeometry x="-0.2636" y="1" relative="1" as="geometry">
            <mxPoint as="offset" />
          </mxGeometry>
        </mxCell>
        <mxCell id="8QDin1UegqGe8droCSOD-123" value="" style="edgeStyle=orthogonalEdgeStyle;rounded=0;orthogonalLoop=1;jettySize=auto;html=1;" parent="1" source="8QDin1UegqGe8droCSOD-116" target="8QDin1UegqGe8droCSOD-122" edge="1">
          <mxGeometry relative="1" as="geometry" />
        </mxCell>
        <mxCell id="8QDin1UegqGe8droCSOD-130" value="False" style="edgeLabel;html=1;align=center;verticalAlign=middle;resizable=0;points=[];" parent="8QDin1UegqGe8droCSOD-123" vertex="1" connectable="0">
          <mxGeometry x="-0.3053" y="-3" relative="1" as="geometry">
            <mxPoint as="offset" />
          </mxGeometry>
        </mxCell>
        <mxCell id="8QDin1UegqGe8droCSOD-116" value="pilih == 2" style="rhombus;whiteSpace=wrap;html=1;fillColor=#000000;strokeColor=#FF0000;rounded=0;" parent="1" vertex="1">
          <mxGeometry x="603.25" y="420" width="80" height="80" as="geometry" />
        </mxCell>
        <mxCell id="8QDin1UegqGe8droCSOD-131" style="edgeStyle=orthogonalEdgeStyle;rounded=0;orthogonalLoop=1;jettySize=auto;html=1;exitX=0.5;exitY=1;exitDx=0;exitDy=0;entryX=1;entryY=0.75;entryDx=0;entryDy=0;" parent="1" source="8QDin1UegqGe8droCSOD-118" target="8QDin1UegqGe8droCSOD-3" edge="1">
          <mxGeometry relative="1" as="geometry">
            <mxPoint x="550" y="210" as="targetPoint" />
            <Array as="points">
              <mxPoint x="643" y="640" />
              <mxPoint x="1020" y="640" />
              <mxPoint x="1020" y="240" />
              <mxPoint x="484" y="240" />
            </Array>
          </mxGeometry>
        </mxCell>
        <mxCell id="8QDin1UegqGe8droCSOD-118" value="registrasi()" style="shape=process;whiteSpace=wrap;html=1;backgroundOutline=1;fillColor=#000000;strokeColor=#FF0000;rounded=0;" parent="1" vertex="1">
          <mxGeometry x="583.25" y="540" width="120" height="50" as="geometry" />
        </mxCell>
        <mxCell id="8QDin1UegqGe8droCSOD-127" value="" style="edgeStyle=orthogonalEdgeStyle;rounded=0;orthogonalLoop=1;jettySize=auto;html=1;" parent="1" source="8QDin1UegqGe8droCSOD-122" target="8QDin1UegqGe8droCSOD-126" edge="1">
          <mxGeometry relative="1" as="geometry" />
        </mxCell>
        <mxCell id="8QDin1UegqGe8droCSOD-129" value="True" style="edgeLabel;html=1;align=center;verticalAlign=middle;resizable=0;points=[];" parent="8QDin1UegqGe8droCSOD-127" vertex="1" connectable="0">
          <mxGeometry x="-0.2636" relative="1" as="geometry">
            <mxPoint as="offset" />
          </mxGeometry>
        </mxCell>
        <mxCell id="8QDin1UegqGe8droCSOD-136" value="" style="edgeStyle=orthogonalEdgeStyle;rounded=0;orthogonalLoop=1;jettySize=auto;html=1;" parent="1" source="8QDin1UegqGe8droCSOD-122" target="8QDin1UegqGe8droCSOD-135" edge="1">
          <mxGeometry relative="1" as="geometry" />
        </mxCell>
        <mxCell id="8QDin1UegqGe8droCSOD-137" value="False" style="edgeLabel;html=1;align=center;verticalAlign=middle;resizable=0;points=[];" parent="8QDin1UegqGe8droCSOD-136" vertex="1" connectable="0">
          <mxGeometry x="0.0642" y="3" relative="1" as="geometry">
            <mxPoint as="offset" />
          </mxGeometry>
        </mxCell>
        <mxCell id="8QDin1UegqGe8droCSOD-122" value="pilih == 3" style="rhombus;whiteSpace=wrap;html=1;fillColor=#000000;strokeColor=#FF0000;rounded=0;" parent="1" vertex="1">
          <mxGeometry x="767.33" y="420" width="80" height="80" as="geometry" />
        </mxCell>
        <mxCell id="8QDin1UegqGe8droCSOD-132" style="edgeStyle=orthogonalEdgeStyle;rounded=0;orthogonalLoop=1;jettySize=auto;html=1;exitX=0.5;exitY=1;exitDx=0;exitDy=0;" parent="1" source="8QDin1UegqGe8droCSOD-126" edge="1">
          <mxGeometry relative="1" as="geometry">
            <mxPoint x="806.8947368421054" y="630" as="targetPoint" />
          </mxGeometry>
        </mxCell>
        <mxCell id="8QDin1UegqGe8droCSOD-126" value="logged_in false" style="rounded=0;whiteSpace=wrap;html=1;fillColor=#000000;strokeColor=#FF0000;" parent="1" vertex="1">
          <mxGeometry x="747.33" y="540" width="120" height="50" as="geometry" />
        </mxCell>
        <mxCell id="8QDin1UegqGe8droCSOD-139" style="edgeStyle=orthogonalEdgeStyle;rounded=0;orthogonalLoop=1;jettySize=auto;html=1;exitX=0.5;exitY=0;exitDx=0;exitDy=0;entryX=1;entryY=0.5;entryDx=0;entryDy=0;" parent="1" source="8QDin1UegqGe8droCSOD-135" target="t_WGj7whDtWNZ_SXQKLY-1" edge="1">
          <mxGeometry relative="1" as="geometry">
            <mxPoint x="939.5263157894738" y="300" as="targetPoint" />
            <Array as="points">
              <mxPoint x="940" y="295" />
            </Array>
          </mxGeometry>
        </mxCell>
        <mxCell id="8QDin1UegqGe8droCSOD-135" value="Output &quot;pilihan&amp;nbsp;&lt;div&gt;tidak valid&quot;&lt;/div&gt;" style="shape=parallelogram;perimeter=parallelogramPerimeter;whiteSpace=wrap;html=1;fixedSize=1;fillColor=#000000;strokeColor=#FF0000;rounded=0;" parent="1" vertex="1">
          <mxGeometry x="880" y="430" width="120" height="60" as="geometry" />
        </mxCell>
        <mxCell id="8QDin1UegqGe8droCSOD-143" value="" style="edgeStyle=orthogonalEdgeStyle;rounded=0;orthogonalLoop=1;jettySize=auto;html=1;" parent="1" source="8QDin1UegqGe8droCSOD-140" target="8QDin1UegqGe8droCSOD-142" edge="1">
          <mxGeometry relative="1" as="geometry" />
        </mxCell>
        <mxCell id="8QDin1UegqGe8droCSOD-140" value="output &quot;Register&quot;" style="shape=parallelogram;perimeter=parallelogramPerimeter;whiteSpace=wrap;html=1;fixedSize=1;" parent="1" vertex="1">
          <mxGeometry x="550" y="2200" width="120" height="60" as="geometry" />
        </mxCell>
        <mxCell id="8QDin1UegqGe8droCSOD-145" value="" style="edgeStyle=orthogonalEdgeStyle;rounded=0;orthogonalLoop=1;jettySize=auto;html=1;" parent="1" source="8QDin1UegqGe8droCSOD-142" target="8QDin1UegqGe8droCSOD-144" edge="1">
          <mxGeometry relative="1" as="geometry" />
        </mxCell>
        <mxCell id="8QDin1UegqGe8droCSOD-142" value="input username&lt;div&gt;&amp;nbsp;&amp;amp; password&lt;/div&gt;" style="shape=parallelogram;perimeter=parallelogramPerimeter;whiteSpace=wrap;html=1;fixedSize=1;" parent="1" vertex="1">
          <mxGeometry x="524.83" y="2310" width="170" height="60" as="geometry" />
        </mxCell>
        <mxCell id="8QDin1UegqGe8droCSOD-147" value="" style="edgeStyle=orthogonalEdgeStyle;rounded=0;orthogonalLoop=1;jettySize=auto;html=1;" parent="1" source="8QDin1UegqGe8droCSOD-144" target="8QDin1UegqGe8droCSOD-146" edge="1">
          <mxGeometry relative="1" as="geometry" />
        </mxCell>
        <mxCell id="8QDin1UegqGe8droCSOD-148" value="True" style="edgeLabel;html=1;align=center;verticalAlign=middle;resizable=0;points=[];" parent="8QDin1UegqGe8droCSOD-147" vertex="1" connectable="0">
          <mxGeometry x="-0.0377" y="1" relative="1" as="geometry">
            <mxPoint as="offset" />
          </mxGeometry>
        </mxCell>
        <mxCell id="8QDin1UegqGe8droCSOD-151" value="" style="edgeStyle=orthogonalEdgeStyle;rounded=0;orthogonalLoop=1;jettySize=auto;html=1;" parent="1" source="8QDin1UegqGe8droCSOD-144" target="8QDin1UegqGe8droCSOD-150" edge="1">
          <mxGeometry relative="1" as="geometry" />
        </mxCell>
        <mxCell id="8QDin1UegqGe8droCSOD-154" value="False" style="edgeLabel;html=1;align=center;verticalAlign=middle;resizable=0;points=[];" parent="8QDin1UegqGe8droCSOD-151" vertex="1" connectable="0">
          <mxGeometry x="-0.1665" y="1" relative="1" as="geometry">
            <mxPoint as="offset" />
          </mxGeometry>
        </mxCell>
        <mxCell id="8QDin1UegqGe8droCSOD-144" value="if username&lt;div&gt;&amp;amp; password kosong&lt;/div&gt;" style="rhombus;whiteSpace=wrap;html=1;" parent="1" vertex="1">
          <mxGeometry x="514.9200000000001" y="2445" width="190.17" height="80" as="geometry" />
        </mxCell>
        <mxCell id="8QDin1UegqGe8droCSOD-149" style="edgeStyle=orthogonalEdgeStyle;rounded=0;orthogonalLoop=1;jettySize=auto;html=1;exitX=0.5;exitY=1;exitDx=0;exitDy=0;entryX=0;entryY=0.5;entryDx=0;entryDy=0;" parent="1" source="8QDin1UegqGe8droCSOD-146" target="8QDin1UegqGe8droCSOD-142" edge="1">
          <mxGeometry relative="1" as="geometry">
            <mxPoint x="400" y="2340" as="targetPoint" />
            <Array as="points">
              <mxPoint x="610" y="2675" />
              <mxPoint x="390" y="2675" />
              <mxPoint x="390" y="2340" />
            </Array>
          </mxGeometry>
        </mxCell>
        <mxCell id="8QDin1UegqGe8droCSOD-146" value="output &quot;username&lt;div&gt;&amp;nbsp;tidak boleh kosong&quot;&lt;/div&gt;" style="shape=parallelogram;perimeter=parallelogramPerimeter;whiteSpace=wrap;html=1;fixedSize=1;" parent="1" vertex="1">
          <mxGeometry x="524.84" y="2595" width="169.99" height="60" as="geometry" />
        </mxCell>
        <mxCell id="8QDin1UegqGe8droCSOD-153" value="" style="edgeStyle=orthogonalEdgeStyle;rounded=0;orthogonalLoop=1;jettySize=auto;html=1;" parent="1" source="8QDin1UegqGe8droCSOD-150" target="8QDin1UegqGe8droCSOD-152" edge="1">
          <mxGeometry relative="1" as="geometry" />
        </mxCell>
        <mxCell id="sPCmXi25brNPtL-pwrYz-147" value="True" style="edgeLabel;html=1;align=center;verticalAlign=middle;resizable=0;points=[];" vertex="1" connectable="0" parent="8QDin1UegqGe8droCSOD-153">
          <mxGeometry x="-0.1977" y="3" relative="1" as="geometry">
            <mxPoint as="offset" />
          </mxGeometry>
        </mxCell>
        <mxCell id="8QDin1UegqGe8droCSOD-156" value="" style="edgeStyle=orthogonalEdgeStyle;rounded=0;orthogonalLoop=1;jettySize=auto;html=1;" parent="1" source="8QDin1UegqGe8droCSOD-150" target="8QDin1UegqGe8droCSOD-155" edge="1">
          <mxGeometry relative="1" as="geometry" />
        </mxCell>
        <mxCell id="8QDin1UegqGe8droCSOD-157" value="False" style="edgeLabel;html=1;align=center;verticalAlign=middle;resizable=0;points=[];" parent="8QDin1UegqGe8droCSOD-156" vertex="1" connectable="0">
          <mxGeometry x="-0.2858" relative="1" as="geometry">
            <mxPoint as="offset" />
          </mxGeometry>
        </mxCell>
        <mxCell id="8QDin1UegqGe8droCSOD-150" value="if username yang&lt;div&gt;dimasukkan sudah terdaftar&lt;/div&gt;" style="rhombus;whiteSpace=wrap;html=1;" parent="1" vertex="1">
          <mxGeometry x="785.09" y="2417.5" width="190.17" height="135" as="geometry" />
        </mxCell>
        <mxCell id="8QDin1UegqGe8droCSOD-160" style="edgeStyle=orthogonalEdgeStyle;rounded=0;orthogonalLoop=1;jettySize=auto;html=1;exitX=0.5;exitY=1;exitDx=0;exitDy=0;entryX=0.975;entryY=0.724;entryDx=0;entryDy=0;entryPerimeter=0;" parent="1" source="8QDin1UegqGe8droCSOD-152" target="8QDin1UegqGe8droCSOD-159" edge="1">
          <mxGeometry relative="1" as="geometry">
            <mxPoint x="879.7142857142858" y="2810" as="targetPoint" />
            <Array as="points">
              <mxPoint x="880" y="2798" />
            </Array>
          </mxGeometry>
        </mxCell>
        <mxCell id="8QDin1UegqGe8droCSOD-152" value="Output &quot;Username&lt;div&gt;&amp;nbsp;sudah terdaftar&quot;&lt;div&gt;&lt;br&gt;&lt;/div&gt;&lt;/div&gt;" style="shape=parallelogram;perimeter=parallelogramPerimeter;whiteSpace=wrap;html=1;fixedSize=1;" parent="1" vertex="1">
          <mxGeometry x="805.27" y="2595" width="149.82" height="60" as="geometry" />
        </mxCell>
        <mxCell id="8QDin1UegqGe8droCSOD-161" style="edgeStyle=orthogonalEdgeStyle;rounded=0;orthogonalLoop=1;jettySize=auto;html=1;exitX=0.5;exitY=1;exitDx=0;exitDy=0;entryX=0.973;entryY=0.769;entryDx=0;entryDy=0;entryPerimeter=0;" parent="1" source="8QDin1UegqGe8droCSOD-155" target="8QDin1UegqGe8droCSOD-159" edge="1">
          <mxGeometry relative="1" as="geometry">
            <mxPoint x="1112.5" y="2800" as="targetPoint" />
            <Array as="points">
              <mxPoint x="1113" y="2801" />
            </Array>
          </mxGeometry>
        </mxCell>
        <mxCell id="8QDin1UegqGe8droCSOD-155" value="&amp;nbsp;Output&lt;div&gt;&quot;Registrasi berhasil&quot;&lt;/div&gt;" style="shape=parallelogram;perimeter=parallelogramPerimeter;whiteSpace=wrap;html=1;fixedSize=1;" parent="1" vertex="1">
          <mxGeometry x="1034.94" y="2455" width="155.78" height="60" as="geometry" />
        </mxCell>
        <mxCell id="8QDin1UegqGe8droCSOD-159" value="END" style="ellipse;whiteSpace=wrap;html=1;" parent="1" vertex="1">
          <mxGeometry x="535.01" y="2740" width="150" height="80" as="geometry" />
        </mxCell>
        <mxCell id="8QDin1UegqGe8droCSOD-164" value="" style="edgeStyle=orthogonalEdgeStyle;rounded=0;orthogonalLoop=1;jettySize=auto;html=1;" parent="1" source="8QDin1UegqGe8droCSOD-162" target="8QDin1UegqGe8droCSOD-163" edge="1">
          <mxGeometry relative="1" as="geometry" />
        </mxCell>
        <mxCell id="8QDin1UegqGe8droCSOD-162" value="login&lt;div&gt;(percobaan=1)&lt;/div&gt;" style="shape=process;whiteSpace=wrap;html=1;backgroundOutline=1;" parent="1" vertex="1">
          <mxGeometry x="1356.5" y="2100" width="120" height="60" as="geometry" />
        </mxCell>
        <mxCell id="8QDin1UegqGe8droCSOD-166" value="" style="edgeStyle=orthogonalEdgeStyle;rounded=0;orthogonalLoop=1;jettySize=auto;html=1;" parent="1" source="8QDin1UegqGe8droCSOD-163" target="8QDin1UegqGe8droCSOD-165" edge="1">
          <mxGeometry relative="1" as="geometry" />
        </mxCell>
        <mxCell id="8QDin1UegqGe8droCSOD-167" value="True" style="edgeLabel;html=1;align=center;verticalAlign=middle;resizable=0;points=[];" parent="8QDin1UegqGe8droCSOD-166" vertex="1" connectable="0">
          <mxGeometry x="-0.2533" y="-1" relative="1" as="geometry">
            <mxPoint as="offset" />
          </mxGeometry>
        </mxCell>
        <mxCell id="8QDin1UegqGe8droCSOD-171" value="" style="edgeStyle=orthogonalEdgeStyle;rounded=0;orthogonalLoop=1;jettySize=auto;html=1;entryX=0;entryY=0.5;entryDx=0;entryDy=0;" parent="1" source="8QDin1UegqGe8droCSOD-163" target="8QDin1UegqGe8droCSOD-173" edge="1">
          <mxGeometry relative="1" as="geometry">
            <mxPoint x="1551.5" y="2280.0000000000005" as="targetPoint" />
          </mxGeometry>
        </mxCell>
        <mxCell id="8QDin1UegqGe8droCSOD-172" value="False" style="edgeLabel;html=1;align=center;verticalAlign=middle;resizable=0;points=[];" parent="8QDin1UegqGe8droCSOD-171" vertex="1" connectable="0">
          <mxGeometry x="-0.0815" relative="1" as="geometry">
            <mxPoint as="offset" />
          </mxGeometry>
        </mxCell>
        <mxCell id="8QDin1UegqGe8droCSOD-163" value="if percobaan&lt;div&gt;&amp;gt; 3&lt;/div&gt;" style="rhombus;whiteSpace=wrap;html=1;" parent="1" vertex="1">
          <mxGeometry x="1361.5" y="2230" width="110" height="100" as="geometry" />
        </mxCell>
        <mxCell id="8QDin1UegqGe8droCSOD-169" value="" style="edgeStyle=orthogonalEdgeStyle;rounded=0;orthogonalLoop=1;jettySize=auto;html=1;" parent="1" source="8QDin1UegqGe8droCSOD-165" target="8QDin1UegqGe8droCSOD-168" edge="1">
          <mxGeometry relative="1" as="geometry" />
        </mxCell>
        <mxCell id="8QDin1UegqGe8droCSOD-165" value="input &quot;Terlalu&amp;nbsp;&lt;div&gt;banyak percobaan login&quot;&lt;/div&gt;" style="shape=parallelogram;perimeter=parallelogramPerimeter;whiteSpace=wrap;html=1;fixedSize=1;" parent="1" vertex="1">
          <mxGeometry x="1351.5" y="2395" width="130" height="60" as="geometry" />
        </mxCell>
        <mxCell id="8QDin1UegqGe8droCSOD-168" value="END" style="ellipse;whiteSpace=wrap;html=1;" parent="1" vertex="1">
          <mxGeometry x="1376.5" y="2525" width="80" height="80" as="geometry" />
        </mxCell>
        <mxCell id="8QDin1UegqGe8droCSOD-177" value="" style="edgeStyle=orthogonalEdgeStyle;rounded=0;orthogonalLoop=1;jettySize=auto;html=1;" parent="1" source="8QDin1UegqGe8droCSOD-173" target="8QDin1UegqGe8droCSOD-176" edge="1">
          <mxGeometry relative="1" as="geometry" />
        </mxCell>
        <mxCell id="8QDin1UegqGe8droCSOD-173" value="input username &amp;amp;&lt;div&gt;password&lt;/div&gt;" style="shape=parallelogram;perimeter=parallelogramPerimeter;whiteSpace=wrap;html=1;fixedSize=1;" parent="1" vertex="1">
          <mxGeometry x="1560.5" y="2250" width="137.5" height="60" as="geometry" />
        </mxCell>
        <mxCell id="8QDin1UegqGe8droCSOD-180" value="" style="edgeStyle=orthogonalEdgeStyle;rounded=0;orthogonalLoop=1;jettySize=auto;html=1;" parent="1" source="8QDin1UegqGe8droCSOD-176" target="8QDin1UegqGe8droCSOD-179" edge="1">
          <mxGeometry relative="1" as="geometry" />
        </mxCell>
        <mxCell id="8QDin1UegqGe8droCSOD-181" value="True" style="edgeLabel;html=1;align=center;verticalAlign=middle;resizable=0;points=[];" parent="8QDin1UegqGe8droCSOD-180" vertex="1" connectable="0">
          <mxGeometry x="-0.1978" y="-1" relative="1" as="geometry">
            <mxPoint as="offset" />
          </mxGeometry>
        </mxCell>
        <mxCell id="8QDin1UegqGe8droCSOD-183" value="" style="edgeStyle=orthogonalEdgeStyle;rounded=0;orthogonalLoop=1;jettySize=auto;html=1;" parent="1" source="8QDin1UegqGe8droCSOD-176" target="8QDin1UegqGe8droCSOD-182" edge="1">
          <mxGeometry relative="1" as="geometry" />
        </mxCell>
        <mxCell id="8QDin1UegqGe8droCSOD-187" value="" style="edgeStyle=orthogonalEdgeStyle;rounded=0;orthogonalLoop=1;jettySize=auto;html=1;" parent="1" source="8QDin1UegqGe8droCSOD-176" target="8QDin1UegqGe8droCSOD-182" edge="1">
          <mxGeometry relative="1" as="geometry" />
        </mxCell>
        <mxCell id="8QDin1UegqGe8droCSOD-188" value="False" style="edgeLabel;html=1;align=center;verticalAlign=middle;resizable=0;points=[];" parent="8QDin1UegqGe8droCSOD-187" vertex="1" connectable="0">
          <mxGeometry x="-0.1125" y="2" relative="1" as="geometry">
            <mxPoint as="offset" />
          </mxGeometry>
        </mxCell>
        <mxCell id="8QDin1UegqGe8droCSOD-176" value="if username/&lt;div&gt;password kosong&lt;br&gt;&lt;div&gt;&lt;br&gt;&lt;/div&gt;&lt;/div&gt;" style="rhombus;whiteSpace=wrap;html=1;" parent="1" vertex="1">
          <mxGeometry x="1786.5" y="2240" width="130" height="80" as="geometry" />
        </mxCell>
        <mxCell id="8QDin1UegqGe8droCSOD-202" style="edgeStyle=orthogonalEdgeStyle;rounded=0;orthogonalLoop=1;jettySize=auto;html=1;exitX=0.5;exitY=1;exitDx=0;exitDy=0;" parent="1" source="8QDin1UegqGe8droCSOD-179" edge="1">
          <mxGeometry relative="1" as="geometry">
            <mxPoint x="1851.5" y="2500" as="targetPoint" />
          </mxGeometry>
        </mxCell>
        <mxCell id="8QDin1UegqGe8droCSOD-179" value="Output &quot;username dan password tidak boleh kosong" style="shape=parallelogram;perimeter=parallelogramPerimeter;whiteSpace=wrap;html=1;fixedSize=1;" parent="1" vertex="1">
          <mxGeometry x="1776.5" y="2370" width="150" height="90" as="geometry" />
        </mxCell>
        <mxCell id="8QDin1UegqGe8droCSOD-185" value="" style="edgeStyle=orthogonalEdgeStyle;rounded=0;orthogonalLoop=1;jettySize=auto;html=1;" parent="1" source="8QDin1UegqGe8droCSOD-182" target="8QDin1UegqGe8droCSOD-184" edge="1">
          <mxGeometry relative="1" as="geometry" />
        </mxCell>
        <mxCell id="8QDin1UegqGe8droCSOD-186" value="True" style="edgeLabel;html=1;align=center;verticalAlign=middle;resizable=0;points=[];" parent="8QDin1UegqGe8droCSOD-185" vertex="1" connectable="0">
          <mxGeometry x="-0.0556" relative="1" as="geometry">
            <mxPoint as="offset" />
          </mxGeometry>
        </mxCell>
        <mxCell id="8QDin1UegqGe8droCSOD-190" value="" style="edgeStyle=orthogonalEdgeStyle;rounded=0;orthogonalLoop=1;jettySize=auto;html=1;" parent="1" source="8QDin1UegqGe8droCSOD-182" target="8QDin1UegqGe8droCSOD-189" edge="1">
          <mxGeometry relative="1" as="geometry" />
        </mxCell>
        <mxCell id="8QDin1UegqGe8droCSOD-194" value="False" style="edgeLabel;html=1;align=center;verticalAlign=middle;resizable=0;points=[];" parent="8QDin1UegqGe8droCSOD-190" vertex="1" connectable="0">
          <mxGeometry x="-0.2459" relative="1" as="geometry">
            <mxPoint as="offset" />
          </mxGeometry>
        </mxCell>
        <mxCell id="8QDin1UegqGe8droCSOD-182" value="&lt;div&gt;&lt;div&gt;if username&amp;nbsp;&lt;/div&gt;&lt;/div&gt;&lt;div&gt;tidak terdata&lt;/div&gt;" style="rhombus;whiteSpace=wrap;html=1;" parent="1" vertex="1">
          <mxGeometry x="1996.5" y="2240" width="130" height="80" as="geometry" />
        </mxCell>
        <mxCell id="8QDin1UegqGe8droCSOD-201" style="edgeStyle=orthogonalEdgeStyle;rounded=0;orthogonalLoop=1;jettySize=auto;html=1;exitX=0.5;exitY=1;exitDx=0;exitDy=0;" parent="1" source="8QDin1UegqGe8droCSOD-184" edge="1">
          <mxGeometry relative="1" as="geometry">
            <mxPoint x="2061.5" y="2500" as="targetPoint" />
          </mxGeometry>
        </mxCell>
        <mxCell id="8QDin1UegqGe8droCSOD-184" value="Output &quot;username&lt;div&gt;tidak ditemukan&lt;/div&gt;" style="shape=parallelogram;perimeter=parallelogramPerimeter;whiteSpace=wrap;html=1;fixedSize=1;" parent="1" vertex="1">
          <mxGeometry x="1994" y="2380" width="135" height="70" as="geometry" />
        </mxCell>
        <mxCell id="8QDin1UegqGe8droCSOD-192" value="" style="edgeStyle=orthogonalEdgeStyle;rounded=0;orthogonalLoop=1;jettySize=auto;html=1;" parent="1" source="8QDin1UegqGe8droCSOD-189" target="8QDin1UegqGe8droCSOD-191" edge="1">
          <mxGeometry relative="1" as="geometry" />
        </mxCell>
        <mxCell id="8QDin1UegqGe8droCSOD-193" value="True" style="edgeLabel;html=1;align=center;verticalAlign=middle;resizable=0;points=[];" parent="8QDin1UegqGe8droCSOD-192" vertex="1" connectable="0">
          <mxGeometry x="-0.0769" y="1" relative="1" as="geometry">
            <mxPoint as="offset" />
          </mxGeometry>
        </mxCell>
        <mxCell id="8QDin1UegqGe8droCSOD-196" value="" style="edgeStyle=orthogonalEdgeStyle;rounded=0;orthogonalLoop=1;jettySize=auto;html=1;" parent="1" source="8QDin1UegqGe8droCSOD-189" target="8QDin1UegqGe8droCSOD-195" edge="1">
          <mxGeometry relative="1" as="geometry" />
        </mxCell>
        <mxCell id="8QDin1UegqGe8droCSOD-197" value="False" style="edgeLabel;html=1;align=center;verticalAlign=middle;resizable=0;points=[];" parent="8QDin1UegqGe8droCSOD-196" vertex="1" connectable="0">
          <mxGeometry x="-0.4412" relative="1" as="geometry">
            <mxPoint as="offset" />
          </mxGeometry>
        </mxCell>
        <mxCell id="8QDin1UegqGe8droCSOD-189" value="&lt;div&gt;&lt;div&gt;if username&amp;nbsp;&lt;/div&gt;&lt;/div&gt;&lt;div&gt;benar tetapi password salah&lt;/div&gt;" style="rhombus;whiteSpace=wrap;html=1;" parent="1" vertex="1">
          <mxGeometry x="2207.83" y="2235" width="150" height="90" as="geometry" />
        </mxCell>
        <mxCell id="8QDin1UegqGe8droCSOD-200" style="edgeStyle=orthogonalEdgeStyle;rounded=0;orthogonalLoop=1;jettySize=auto;html=1;exitX=0.5;exitY=1;exitDx=0;exitDy=0;entryX=1;entryY=1;entryDx=0;entryDy=0;" parent="1" source="8QDin1UegqGe8droCSOD-191" target="8QDin1UegqGe8droCSOD-163" edge="1">
          <mxGeometry relative="1" as="geometry">
            <mxPoint x="1516.5" y="2320" as="targetPoint" />
            <Array as="points">
              <mxPoint x="2282.5" y="2510" />
              <mxPoint x="1526.5" y="2510" />
              <mxPoint x="1526.5" y="2320" />
              <mxPoint x="1444.5" y="2320" />
            </Array>
          </mxGeometry>
        </mxCell>
        <mxCell id="8QDin1UegqGe8droCSOD-191" value="output&amp;nbsp;&lt;div&gt;&quot; Password salah&quot;&lt;/div&gt;" style="shape=parallelogram;perimeter=parallelogramPerimeter;whiteSpace=wrap;html=1;fixedSize=1;" parent="1" vertex="1">
          <mxGeometry x="2216" y="2390" width="133.67" height="60" as="geometry" />
        </mxCell>
        <mxCell id="8QDin1UegqGe8droCSOD-198" style="edgeStyle=orthogonalEdgeStyle;rounded=0;orthogonalLoop=1;jettySize=auto;html=1;exitX=0.5;exitY=1;exitDx=0;exitDy=0;entryX=1.027;entryY=0.447;entryDx=0;entryDy=0;entryPerimeter=0;" parent="1" source="8QDin1UegqGe8droCSOD-195" target="8QDin1UegqGe8droCSOD-168" edge="1">
          <mxGeometry relative="1" as="geometry">
            <mxPoint x="1616.5" y="2550" as="targetPoint" />
            <Array as="points">
              <mxPoint x="2512.5" y="2561" />
            </Array>
          </mxGeometry>
        </mxCell>
        <mxCell id="8QDin1UegqGe8droCSOD-195" value="Output &quot;Login Berhasil&quot;" style="shape=parallelogram;perimeter=parallelogramPerimeter;whiteSpace=wrap;html=1;fixedSize=1;" parent="1" vertex="1">
          <mxGeometry x="2452.83" y="2250" width="120" height="60" as="geometry" />
        </mxCell>
        <mxCell id="sPCmXi25brNPtL-pwrYz-3" value="" style="edgeStyle=orthogonalEdgeStyle;rounded=0;orthogonalLoop=1;jettySize=auto;html=1;" edge="1" parent="1" source="sPCmXi25brNPtL-pwrYz-1" target="sPCmXi25brNPtL-pwrYz-2">
          <mxGeometry relative="1" as="geometry" />
        </mxCell>
        <mxCell id="sPCmXi25brNPtL-pwrYz-1" value="menu_admin()" style="shape=process;whiteSpace=wrap;html=1;backgroundOutline=1;" vertex="1" parent="1">
          <mxGeometry x="2840" y="2090" width="120" height="60" as="geometry" />
        </mxCell>
        <mxCell id="sPCmXi25brNPtL-pwrYz-6" value="" style="edgeStyle=orthogonalEdgeStyle;rounded=0;orthogonalLoop=1;jettySize=auto;html=1;" edge="1" parent="1" source="sPCmXi25brNPtL-pwrYz-2">
          <mxGeometry relative="1" as="geometry">
            <mxPoint x="2900.2857142857147" y="2340" as="targetPoint" />
          </mxGeometry>
        </mxCell>
        <mxCell id="sPCmXi25brNPtL-pwrYz-2" value="Output&lt;div&gt;&amp;nbsp;&quot;menu admin&quot;&lt;div&gt;&lt;br&gt;&lt;/div&gt;&lt;/div&gt;" style="shape=parallelogram;perimeter=parallelogramPerimeter;whiteSpace=wrap;html=1;fixedSize=1;" vertex="1" parent="1">
          <mxGeometry x="2840" y="2220" width="120" height="60" as="geometry" />
        </mxCell>
        <mxCell id="sPCmXi25brNPtL-pwrYz-9" value="" style="edgeStyle=orthogonalEdgeStyle;rounded=0;orthogonalLoop=1;jettySize=auto;html=1;" edge="1" parent="1" source="sPCmXi25brNPtL-pwrYz-7" target="sPCmXi25brNPtL-pwrYz-8">
          <mxGeometry relative="1" as="geometry" />
        </mxCell>
        <mxCell id="sPCmXi25brNPtL-pwrYz-7" value="pilihan_admin&amp;nbsp;&lt;div&gt;= input(&quot;pilih menu: &quot;)&lt;/div&gt;" style="whiteSpace=wrap;html=1;" vertex="1" parent="1">
          <mxGeometry x="2842.75" y="2340" width="120" height="60" as="geometry" />
        </mxCell>
        <mxCell id="sPCmXi25brNPtL-pwrYz-11" value="" style="edgeStyle=orthogonalEdgeStyle;rounded=0;orthogonalLoop=1;jettySize=auto;html=1;" edge="1" parent="1" source="sPCmXi25brNPtL-pwrYz-8" target="sPCmXi25brNPtL-pwrYz-10">
          <mxGeometry relative="1" as="geometry" />
        </mxCell>
        <mxCell id="sPCmXi25brNPtL-pwrYz-8" value="input pilih menu" style="shape=parallelogram;perimeter=parallelogramPerimeter;whiteSpace=wrap;html=1;fixedSize=1;" vertex="1" parent="1">
          <mxGeometry x="2842.75" y="2450" width="120" height="60" as="geometry" />
        </mxCell>
        <mxCell id="sPCmXi25brNPtL-pwrYz-15" value="" style="edgeStyle=orthogonalEdgeStyle;rounded=0;orthogonalLoop=1;jettySize=auto;html=1;" edge="1" parent="1" source="sPCmXi25brNPtL-pwrYz-10" target="sPCmXi25brNPtL-pwrYz-14">
          <mxGeometry relative="1" as="geometry" />
        </mxCell>
        <mxCell id="sPCmXi25brNPtL-pwrYz-10" value="Return pilihan_admin" style="whiteSpace=wrap;html=1;" vertex="1" parent="1">
          <mxGeometry x="2842.75" y="2590" width="120" height="60" as="geometry" />
        </mxCell>
        <mxCell id="sPCmXi25brNPtL-pwrYz-12" value="" style="edgeStyle=none;orthogonalLoop=1;jettySize=auto;html=1;rounded=0;" edge="1" parent="1">
          <mxGeometry width="100" relative="1" as="geometry">
            <mxPoint x="2902.75" y="2270" as="sourcePoint" />
            <mxPoint x="3002.75" y="2270" as="targetPoint" />
            <Array as="points" />
          </mxGeometry>
        </mxCell>
        <mxCell id="sPCmXi25brNPtL-pwrYz-13" value="" style="edgeStyle=none;orthogonalLoop=1;jettySize=auto;html=1;rounded=0;" edge="1" parent="1">
          <mxGeometry width="100" relative="1" as="geometry">
            <mxPoint x="2814.96" y="2460" as="sourcePoint" />
            <mxPoint x="2914.96" y="2460" as="targetPoint" />
            <Array as="points" />
          </mxGeometry>
        </mxCell>
        <mxCell id="sPCmXi25brNPtL-pwrYz-14" value="END" style="ellipse;whiteSpace=wrap;html=1;" vertex="1" parent="1">
          <mxGeometry x="2862.75" y="2720" width="80" height="80" as="geometry" />
        </mxCell>
        <mxCell id="sPCmXi25brNPtL-pwrYz-20" value="" style="edgeStyle=orthogonalEdgeStyle;rounded=0;orthogonalLoop=1;jettySize=auto;html=1;" edge="1" parent="1" source="sPCmXi25brNPtL-pwrYz-16" target="sPCmXi25brNPtL-pwrYz-19">
          <mxGeometry relative="1" as="geometry" />
        </mxCell>
        <mxCell id="sPCmXi25brNPtL-pwrYz-16" value="menu_user&lt;div&gt;(username)&lt;/div&gt;" style="shape=process;whiteSpace=wrap;html=1;backgroundOutline=1;" vertex="1" parent="1">
          <mxGeometry x="3414.83" y="2090" width="120" height="60" as="geometry" />
        </mxCell>
        <mxCell id="sPCmXi25brNPtL-pwrYz-22" value="" style="edgeStyle=orthogonalEdgeStyle;rounded=0;orthogonalLoop=1;jettySize=auto;html=1;" edge="1" parent="1" source="sPCmXi25brNPtL-pwrYz-19" target="sPCmXi25brNPtL-pwrYz-21">
          <mxGeometry relative="1" as="geometry" />
        </mxCell>
        <mxCell id="sPCmXi25brNPtL-pwrYz-19" value="Output&lt;div&gt;&quot;Menu Pengguna&quot;&lt;/div&gt;" style="shape=parallelogram;perimeter=parallelogramPerimeter;whiteSpace=wrap;html=1;fixedSize=1;" vertex="1" parent="1">
          <mxGeometry x="3409.83" y="2210" width="130" height="60" as="geometry" />
        </mxCell>
        <mxCell id="sPCmXi25brNPtL-pwrYz-24" value="" style="edgeStyle=orthogonalEdgeStyle;rounded=0;orthogonalLoop=1;jettySize=auto;html=1;" edge="1" parent="1" source="sPCmXi25brNPtL-pwrYz-21" target="sPCmXi25brNPtL-pwrYz-23">
          <mxGeometry relative="1" as="geometry" />
        </mxCell>
        <mxCell id="sPCmXi25brNPtL-pwrYz-21" value="user_menu =&amp;nbsp;&lt;div&gt;input(&quot;pilih menu: &quot;)&lt;/div&gt;" style="whiteSpace=wrap;html=1;" vertex="1" parent="1">
          <mxGeometry x="3414.83" y="2340" width="120" height="60" as="geometry" />
        </mxCell>
        <mxCell id="sPCmXi25brNPtL-pwrYz-26" value="" style="edgeStyle=orthogonalEdgeStyle;rounded=0;orthogonalLoop=1;jettySize=auto;html=1;" edge="1" parent="1" source="sPCmXi25brNPtL-pwrYz-23" target="sPCmXi25brNPtL-pwrYz-25">
          <mxGeometry relative="1" as="geometry" />
        </mxCell>
        <mxCell id="sPCmXi25brNPtL-pwrYz-23" value="input pilih menu" style="shape=parallelogram;perimeter=parallelogramPerimeter;whiteSpace=wrap;html=1;fixedSize=1;" vertex="1" parent="1">
          <mxGeometry x="3414.83" y="2470" width="120" height="60" as="geometry" />
        </mxCell>
        <mxCell id="sPCmXi25brNPtL-pwrYz-28" value="" style="edgeStyle=orthogonalEdgeStyle;rounded=0;orthogonalLoop=1;jettySize=auto;html=1;" edge="1" parent="1" source="sPCmXi25brNPtL-pwrYz-25">
          <mxGeometry relative="1" as="geometry">
            <mxPoint x="3474.83" y="2730" as="targetPoint" />
          </mxGeometry>
        </mxCell>
        <mxCell id="sPCmXi25brNPtL-pwrYz-25" value="return user_menu" style="whiteSpace=wrap;html=1;" vertex="1" parent="1">
          <mxGeometry x="3414.83" y="2590" width="120" height="60" as="geometry" />
        </mxCell>
        <mxCell id="sPCmXi25brNPtL-pwrYz-29" value="END" style="ellipse;whiteSpace=wrap;html=1;" vertex="1" parent="1">
          <mxGeometry x="3434.83" y="2730" width="80" height="80" as="geometry" />
        </mxCell>
        <mxCell id="sPCmXi25brNPtL-pwrYz-33" value="" style="edgeStyle=orthogonalEdgeStyle;rounded=0;orthogonalLoop=1;jettySize=auto;html=1;" edge="1" parent="1" source="sPCmXi25brNPtL-pwrYz-31" target="sPCmXi25brNPtL-pwrYz-32">
          <mxGeometry relative="1" as="geometry" />
        </mxCell>
        <mxCell id="sPCmXi25brNPtL-pwrYz-31" value="tampilkan_semua_&lt;div&gt;penyewaan()&lt;/div&gt;" style="shape=process;whiteSpace=wrap;html=1;backgroundOutline=1;" vertex="1" parent="1">
          <mxGeometry x="499.40999999999997" y="3020" width="210" height="60" as="geometry" />
        </mxCell>
        <mxCell id="sPCmXi25brNPtL-pwrYz-35" value="" style="edgeStyle=orthogonalEdgeStyle;rounded=0;orthogonalLoop=1;jettySize=auto;html=1;" edge="1" parent="1" source="sPCmXi25brNPtL-pwrYz-32" target="sPCmXi25brNPtL-pwrYz-34">
          <mxGeometry relative="1" as="geometry" />
        </mxCell>
        <mxCell id="sPCmXi25brNPtL-pwrYz-32" value="Output &quot;semua&lt;div&gt;penyewaan&quot;&lt;/div&gt;" style="shape=parallelogram;perimeter=parallelogramPerimeter;whiteSpace=wrap;html=1;fixedSize=1;" vertex="1" parent="1">
          <mxGeometry x="544.41" y="3160" width="120" height="60" as="geometry" />
        </mxCell>
        <mxCell id="sPCmXi25brNPtL-pwrYz-37" value="" style="edgeStyle=orthogonalEdgeStyle;rounded=0;orthogonalLoop=1;jettySize=auto;html=1;" edge="1" parent="1" source="sPCmXi25brNPtL-pwrYz-34" target="sPCmXi25brNPtL-pwrYz-36">
          <mxGeometry relative="1" as="geometry" />
        </mxCell>
        <mxCell id="sPCmXi25brNPtL-pwrYz-38" value="True" style="edgeLabel;html=1;align=center;verticalAlign=middle;resizable=0;points=[];" vertex="1" connectable="0" parent="sPCmXi25brNPtL-pwrYz-37">
          <mxGeometry x="-0.1849" relative="1" as="geometry">
            <mxPoint as="offset" />
          </mxGeometry>
        </mxCell>
        <mxCell id="sPCmXi25brNPtL-pwrYz-40" value="" style="edgeStyle=orthogonalEdgeStyle;rounded=0;orthogonalLoop=1;jettySize=auto;html=1;" edge="1" parent="1" source="sPCmXi25brNPtL-pwrYz-34" target="sPCmXi25brNPtL-pwrYz-39">
          <mxGeometry relative="1" as="geometry" />
        </mxCell>
        <mxCell id="sPCmXi25brNPtL-pwrYz-41" value="False" style="edgeLabel;html=1;align=center;verticalAlign=middle;resizable=0;points=[];" vertex="1" connectable="0" parent="sPCmXi25brNPtL-pwrYz-40">
          <mxGeometry x="-0.2766" y="-4" relative="1" as="geometry">
            <mxPoint as="offset" />
          </mxGeometry>
        </mxCell>
        <mxCell id="sPCmXi25brNPtL-pwrYz-34" value="if belum&amp;nbsp;&lt;div&gt;ada yang bookings&lt;/div&gt;" style="rhombus;whiteSpace=wrap;html=1;" vertex="1" parent="1">
          <mxGeometry x="521.61" y="3270" width="165.59" height="120" as="geometry" />
        </mxCell>
        <mxCell id="sPCmXi25brNPtL-pwrYz-46" value="" style="edgeStyle=orthogonalEdgeStyle;rounded=0;orthogonalLoop=1;jettySize=auto;html=1;" edge="1" parent="1" source="sPCmXi25brNPtL-pwrYz-36" target="sPCmXi25brNPtL-pwrYz-45">
          <mxGeometry relative="1" as="geometry" />
        </mxCell>
        <mxCell id="sPCmXi25brNPtL-pwrYz-36" value="Output &quot;Belum&lt;div&gt;ada data penyewaan&quot;&lt;/div&gt;" style="shape=parallelogram;perimeter=parallelogramPerimeter;whiteSpace=wrap;html=1;fixedSize=1;" vertex="1" parent="1">
          <mxGeometry x="527.65" y="3470" width="155.6" height="80" as="geometry" />
        </mxCell>
        <mxCell id="sPCmXi25brNPtL-pwrYz-47" style="edgeStyle=orthogonalEdgeStyle;rounded=0;orthogonalLoop=1;jettySize=auto;html=1;exitX=1;exitY=0.5;exitDx=0;exitDy=0;entryX=0.959;entryY=0.754;entryDx=0;entryDy=0;entryPerimeter=0;" edge="1" parent="1" source="sPCmXi25brNPtL-pwrYz-39" target="sPCmXi25brNPtL-pwrYz-45">
          <mxGeometry relative="1" as="geometry">
            <mxPoint x="1030" y="3680" as="targetPoint" />
            <Array as="points">
              <mxPoint x="1040" y="3330" />
              <mxPoint x="1040" y="3680" />
            </Array>
          </mxGeometry>
        </mxCell>
        <mxCell id="sPCmXi25brNPtL-pwrYz-39" value="Output &quot;data penyewaan&quot;" style="shape=parallelogram;perimeter=parallelogramPerimeter;whiteSpace=wrap;html=1;fixedSize=1;" vertex="1" parent="1">
          <mxGeometry x="789.995" y="3300" width="120" height="60" as="geometry" />
        </mxCell>
        <mxCell id="sPCmXi25brNPtL-pwrYz-42" value="" style="edgeStyle=none;orthogonalLoop=1;jettySize=auto;html=1;rounded=0;" edge="1" parent="1">
          <mxGeometry width="100" relative="1" as="geometry">
            <mxPoint x="594.83" y="3210" as="sourcePoint" />
            <mxPoint x="694.83" y="3210" as="targetPoint" />
            <Array as="points" />
          </mxGeometry>
        </mxCell>
        <mxCell id="sPCmXi25brNPtL-pwrYz-43" value="" style="edgeStyle=none;orthogonalLoop=1;jettySize=auto;html=1;rounded=0;" edge="1" parent="1">
          <mxGeometry width="100" relative="1" as="geometry">
            <mxPoint x="838.59" y="3350" as="sourcePoint" />
            <mxPoint x="938.59" y="3350" as="targetPoint" />
            <Array as="points" />
          </mxGeometry>
        </mxCell>
        <mxCell id="sPCmXi25brNPtL-pwrYz-44" value="" style="edgeStyle=none;orthogonalLoop=1;jettySize=auto;html=1;rounded=0;" edge="1" parent="1">
          <mxGeometry width="100" relative="1" as="geometry">
            <mxPoint x="618.75" y="3540" as="sourcePoint" />
            <mxPoint x="718.75" y="3540" as="targetPoint" />
            <Array as="points" />
          </mxGeometry>
        </mxCell>
        <mxCell id="sPCmXi25brNPtL-pwrYz-45" value="END" style="ellipse;whiteSpace=wrap;html=1;" vertex="1" parent="1">
          <mxGeometry x="558.1800000000001" y="3620" width="94.55" height="80" as="geometry" />
        </mxCell>
        <mxCell id="sPCmXi25brNPtL-pwrYz-50" value="" style="edgeStyle=orthogonalEdgeStyle;rounded=0;orthogonalLoop=1;jettySize=auto;html=1;" edge="1" parent="1" source="sPCmXi25brNPtL-pwrYz-48" target="sPCmXi25brNPtL-pwrYz-49">
          <mxGeometry relative="1" as="geometry" />
        </mxCell>
        <mxCell id="sPCmXi25brNPtL-pwrYz-48" value="tampilkan_menu_utama()" style="shape=process;whiteSpace=wrap;html=1;backgroundOutline=1;" vertex="1" parent="1">
          <mxGeometry x="1366.74" y="3020" width="230" height="60" as="geometry" />
        </mxCell>
        <mxCell id="LquLBbxuFG8RKJGfX2fH-4" style="edgeStyle=orthogonalEdgeStyle;rounded=0;orthogonalLoop=1;jettySize=auto;html=1;exitX=0.5;exitY=1;exitDx=0;exitDy=0;entryX=0.5;entryY=0;entryDx=0;entryDy=0;" edge="1" parent="1" source="sPCmXi25brNPtL-pwrYz-49">
          <mxGeometry relative="1" as="geometry">
            <mxPoint x="1481.7399999999998" y="3280" as="targetPoint" />
          </mxGeometry>
        </mxCell>
        <mxCell id="sPCmXi25brNPtL-pwrYz-49" value="Output&lt;div&gt;&amp;nbsp;&quot;menu_utama&quot;&lt;/div&gt;" style="shape=parallelogram;perimeter=parallelogramPerimeter;whiteSpace=wrap;html=1;fixedSize=1;" vertex="1" parent="1">
          <mxGeometry x="1412.61" y="3160" width="138.26" height="60" as="geometry" />
        </mxCell>
        <mxCell id="sPCmXi25brNPtL-pwrYz-51" value="END" style="ellipse;whiteSpace=wrap;html=1;" vertex="1" parent="1">
          <mxGeometry x="1441.7399999999998" y="3280" width="80" height="80" as="geometry" />
        </mxCell>
        <mxCell id="sPCmXi25brNPtL-pwrYz-55" value="" style="edgeStyle=orthogonalEdgeStyle;rounded=0;orthogonalLoop=1;jettySize=auto;html=1;" edge="1" parent="1" source="sPCmXi25brNPtL-pwrYz-53" target="sPCmXi25brNPtL-pwrYz-54">
          <mxGeometry relative="1" as="geometry" />
        </mxCell>
        <mxCell id="sPCmXi25brNPtL-pwrYz-53" value="tambah_penyewaan&lt;div&gt;(username)&lt;/div&gt;" style="shape=process;whiteSpace=wrap;html=1;backgroundOutline=1;" vertex="1" parent="1">
          <mxGeometry x="1856.33" y="3020" width="230" height="60" as="geometry" />
        </mxCell>
        <mxCell id="sPCmXi25brNPtL-pwrYz-57" value="" style="edgeStyle=orthogonalEdgeStyle;rounded=0;orthogonalLoop=1;jettySize=auto;html=1;" edge="1" parent="1" source="sPCmXi25brNPtL-pwrYz-54" target="sPCmXi25brNPtL-pwrYz-56">
          <mxGeometry relative="1" as="geometry" />
        </mxCell>
        <mxCell id="sPCmXi25brNPtL-pwrYz-54" value="Output&amp;nbsp;&lt;div&gt;&quot;Tambah Penyewaan&quot;&lt;/div&gt;" style="shape=parallelogram;perimeter=parallelogramPerimeter;whiteSpace=wrap;html=1;fixedSize=1;" vertex="1" parent="1">
          <mxGeometry x="1892" y="3150" width="158.67" height="60" as="geometry" />
        </mxCell>
        <mxCell id="sPCmXi25brNPtL-pwrYz-59" value="" style="edgeStyle=orthogonalEdgeStyle;rounded=0;orthogonalLoop=1;jettySize=auto;html=1;" edge="1" parent="1" source="sPCmXi25brNPtL-pwrYz-56" target="sPCmXi25brNPtL-pwrYz-58">
          <mxGeometry relative="1" as="geometry" />
        </mxCell>
        <mxCell id="sPCmXi25brNPtL-pwrYz-56" value="Output&amp;nbsp;&lt;div&gt;&quot;isi data dibawah ini sesuai dengan format&quot;&lt;/div&gt;" style="shape=parallelogram;perimeter=parallelogramPerimeter;whiteSpace=wrap;html=1;fixedSize=1;" vertex="1" parent="1">
          <mxGeometry x="1882" y="3270" width="178.66" height="60" as="geometry" />
        </mxCell>
        <mxCell id="sPCmXi25brNPtL-pwrYz-61" value="" style="edgeStyle=orthogonalEdgeStyle;rounded=0;orthogonalLoop=1;jettySize=auto;html=1;" edge="1" parent="1" source="sPCmXi25brNPtL-pwrYz-58" target="sPCmXi25brNPtL-pwrYz-60">
          <mxGeometry relative="1" as="geometry" />
        </mxCell>
        <mxCell id="sPCmXi25brNPtL-pwrYz-58" value="input tanggal,jam dan&lt;div&gt;lapangan&lt;/div&gt;" style="shape=parallelogram;perimeter=parallelogramPerimeter;whiteSpace=wrap;html=1;fixedSize=1;" vertex="1" parent="1">
          <mxGeometry x="1882.66" y="3400" width="178" height="60" as="geometry" />
        </mxCell>
        <mxCell id="sPCmXi25brNPtL-pwrYz-63" value="" style="edgeStyle=orthogonalEdgeStyle;rounded=0;orthogonalLoop=1;jettySize=auto;html=1;" edge="1" parent="1" source="sPCmXi25brNPtL-pwrYz-60" target="sPCmXi25brNPtL-pwrYz-62">
          <mxGeometry relative="1" as="geometry" />
        </mxCell>
        <mxCell id="sPCmXi25brNPtL-pwrYz-64" value="True" style="edgeLabel;html=1;align=center;verticalAlign=middle;resizable=0;points=[];" vertex="1" connectable="0" parent="sPCmXi25brNPtL-pwrYz-63">
          <mxGeometry x="-0.2674" y="1" relative="1" as="geometry">
            <mxPoint as="offset" />
          </mxGeometry>
        </mxCell>
        <mxCell id="sPCmXi25brNPtL-pwrYz-68" value="" style="edgeStyle=orthogonalEdgeStyle;rounded=0;orthogonalLoop=1;jettySize=auto;html=1;" edge="1" parent="1" source="sPCmXi25brNPtL-pwrYz-60" target="sPCmXi25brNPtL-pwrYz-67">
          <mxGeometry relative="1" as="geometry" />
        </mxCell>
        <mxCell id="sPCmXi25brNPtL-pwrYz-71" value="False" style="edgeLabel;html=1;align=center;verticalAlign=middle;resizable=0;points=[];" vertex="1" connectable="0" parent="sPCmXi25brNPtL-pwrYz-68">
          <mxGeometry x="-0.3294" y="-2" relative="1" as="geometry">
            <mxPoint as="offset" />
          </mxGeometry>
        </mxCell>
        <mxCell id="sPCmXi25brNPtL-pwrYz-60" value="if tanggal/jam/lapangan&lt;div&gt;kosong&lt;/div&gt;" style="rhombus;whiteSpace=wrap;html=1;" vertex="1" parent="1">
          <mxGeometry x="1892.3300000000002" y="3510" width="158.34" height="100" as="geometry" />
        </mxCell>
        <mxCell id="sPCmXi25brNPtL-pwrYz-73" value="" style="edgeStyle=orthogonalEdgeStyle;rounded=0;orthogonalLoop=1;jettySize=auto;html=1;" edge="1" parent="1" source="sPCmXi25brNPtL-pwrYz-62" target="sPCmXi25brNPtL-pwrYz-72">
          <mxGeometry relative="1" as="geometry" />
        </mxCell>
        <mxCell id="sPCmXi25brNPtL-pwrYz-62" value="Output&amp;nbsp;&lt;div&gt;&quot;semua data harus diisi&quot;&lt;/div&gt;" style="shape=parallelogram;perimeter=parallelogramPerimeter;whiteSpace=wrap;html=1;fixedSize=1;" vertex="1" parent="1">
          <mxGeometry x="1892.8300000000002" y="3660" width="157.84" height="70" as="geometry" />
        </mxCell>
        <mxCell id="sPCmXi25brNPtL-pwrYz-70" value="" style="edgeStyle=orthogonalEdgeStyle;rounded=0;orthogonalLoop=1;jettySize=auto;html=1;" edge="1" parent="1" source="sPCmXi25brNPtL-pwrYz-67" target="sPCmXi25brNPtL-pwrYz-69">
          <mxGeometry relative="1" as="geometry" />
        </mxCell>
        <mxCell id="sPCmXi25brNPtL-pwrYz-67" value="tanggal,jam dan lapangan = bookings" style="whiteSpace=wrap;html=1;" vertex="1" parent="1">
          <mxGeometry x="2149.84" y="3530" width="120" height="60" as="geometry" />
        </mxCell>
        <mxCell id="sPCmXi25brNPtL-pwrYz-74" style="edgeStyle=orthogonalEdgeStyle;rounded=0;orthogonalLoop=1;jettySize=auto;html=1;exitX=1;exitY=0.5;exitDx=0;exitDy=0;entryX=0.973;entryY=0.755;entryDx=0;entryDy=0;entryPerimeter=0;" edge="1" parent="1" source="sPCmXi25brNPtL-pwrYz-69" target="sPCmXi25brNPtL-pwrYz-72">
          <mxGeometry relative="1" as="geometry">
            <mxPoint x="2540" y="3870" as="targetPoint" />
            <Array as="points">
              <mxPoint x="2550" y="3560" />
              <mxPoint x="2550" y="3870" />
            </Array>
          </mxGeometry>
        </mxCell>
        <mxCell id="sPCmXi25brNPtL-pwrYz-69" value="Output&amp;nbsp;&lt;div&gt;&quot;penyewaan berhasil&lt;/div&gt;" style="shape=parallelogram;perimeter=parallelogramPerimeter;whiteSpace=wrap;html=1;fixedSize=1;" vertex="1" parent="1">
          <mxGeometry x="2349.67" y="3525" width="150.16" height="70" as="geometry" />
        </mxCell>
        <mxCell id="sPCmXi25brNPtL-pwrYz-72" value="END" style="ellipse;whiteSpace=wrap;html=1;" vertex="1" parent="1">
          <mxGeometry x="1917.63" y="3810" width="108.25" height="80" as="geometry" />
        </mxCell>
        <mxCell id="sPCmXi25brNPtL-pwrYz-78" value="" style="edgeStyle=orthogonalEdgeStyle;rounded=0;orthogonalLoop=1;jettySize=auto;html=1;" edge="1" parent="1" source="sPCmXi25brNPtL-pwrYz-76" target="sPCmXi25brNPtL-pwrYz-77">
          <mxGeometry relative="1" as="geometry" />
        </mxCell>
        <mxCell id="sPCmXi25brNPtL-pwrYz-76" value="ubah_penyewaan&lt;div&gt;(username)&lt;/div&gt;" style="shape=process;whiteSpace=wrap;html=1;backgroundOutline=1;" vertex="1" parent="1">
          <mxGeometry x="2770" y="3030" width="120" height="60" as="geometry" />
        </mxCell>
        <mxCell id="sPCmXi25brNPtL-pwrYz-80" value="" style="edgeStyle=orthogonalEdgeStyle;rounded=0;orthogonalLoop=1;jettySize=auto;html=1;" edge="1" parent="1" source="sPCmXi25brNPtL-pwrYz-77" target="sPCmXi25brNPtL-pwrYz-79">
          <mxGeometry relative="1" as="geometry" />
        </mxCell>
        <mxCell id="sPCmXi25brNPtL-pwrYz-81" value="True" style="edgeLabel;html=1;align=center;verticalAlign=middle;resizable=0;points=[];" vertex="1" connectable="0" parent="sPCmXi25brNPtL-pwrYz-80">
          <mxGeometry x="-0.0895" y="-2" relative="1" as="geometry">
            <mxPoint as="offset" />
          </mxGeometry>
        </mxCell>
        <mxCell id="sPCmXi25brNPtL-pwrYz-83" value="" style="edgeStyle=orthogonalEdgeStyle;rounded=0;orthogonalLoop=1;jettySize=auto;html=1;" edge="1" parent="1" source="sPCmXi25brNPtL-pwrYz-77" target="sPCmXi25brNPtL-pwrYz-82">
          <mxGeometry relative="1" as="geometry" />
        </mxCell>
        <mxCell id="sPCmXi25brNPtL-pwrYz-84" value="False" style="edgeLabel;html=1;align=center;verticalAlign=middle;resizable=0;points=[];" vertex="1" connectable="0" parent="sPCmXi25brNPtL-pwrYz-83">
          <mxGeometry x="-0.088" y="-1" relative="1" as="geometry">
            <mxPoint as="offset" />
          </mxGeometry>
        </mxCell>
        <mxCell id="sPCmXi25brNPtL-pwrYz-77" value="if bookings&amp;nbsp;&lt;div&gt;belum ada&lt;/div&gt;" style="rhombus;whiteSpace=wrap;html=1;" vertex="1" parent="1">
          <mxGeometry x="2782.5" y="3150" width="95" height="80" as="geometry" />
        </mxCell>
        <mxCell id="sPCmXi25brNPtL-pwrYz-103" style="edgeStyle=orthogonalEdgeStyle;rounded=0;orthogonalLoop=1;jettySize=auto;html=1;exitX=0.5;exitY=1;exitDx=0;exitDy=0;" edge="1" parent="1" source="sPCmXi25brNPtL-pwrYz-79" target="sPCmXi25brNPtL-pwrYz-102">
          <mxGeometry relative="1" as="geometry" />
        </mxCell>
        <mxCell id="sPCmXi25brNPtL-pwrYz-79" value="Output&amp;nbsp;&lt;div&gt;&quot;Tidak ada penyewaan untuk pungguna ini.&quot;&lt;/div&gt;" style="shape=parallelogram;perimeter=parallelogramPerimeter;whiteSpace=wrap;html=1;fixedSize=1;" vertex="1" parent="1">
          <mxGeometry x="2750" y="3320" width="160" height="60" as="geometry" />
        </mxCell>
        <mxCell id="sPCmXi25brNPtL-pwrYz-86" value="" style="edgeStyle=orthogonalEdgeStyle;rounded=0;orthogonalLoop=1;jettySize=auto;html=1;" edge="1" parent="1" source="sPCmXi25brNPtL-pwrYz-82" target="sPCmXi25brNPtL-pwrYz-85">
          <mxGeometry relative="1" as="geometry" />
        </mxCell>
        <mxCell id="sPCmXi25brNPtL-pwrYz-82" value="input nomor yang ingin diubah" style="shape=parallelogram;perimeter=parallelogramPerimeter;whiteSpace=wrap;html=1;fixedSize=1;" vertex="1" parent="1">
          <mxGeometry x="2942.75" y="3152.5" width="122.75" height="75" as="geometry" />
        </mxCell>
        <mxCell id="sPCmXi25brNPtL-pwrYz-88" value="" style="edgeStyle=orthogonalEdgeStyle;rounded=0;orthogonalLoop=1;jettySize=auto;html=1;" edge="1" parent="1" source="sPCmXi25brNPtL-pwrYz-85" target="sPCmXi25brNPtL-pwrYz-87">
          <mxGeometry relative="1" as="geometry" />
        </mxCell>
        <mxCell id="sPCmXi25brNPtL-pwrYz-89" value="True" style="edgeLabel;html=1;align=center;verticalAlign=middle;resizable=0;points=[];" vertex="1" connectable="0" parent="sPCmXi25brNPtL-pwrYz-88">
          <mxGeometry x="-0.2364" y="2" relative="1" as="geometry">
            <mxPoint as="offset" />
          </mxGeometry>
        </mxCell>
        <mxCell id="sPCmXi25brNPtL-pwrYz-91" value="" style="edgeStyle=orthogonalEdgeStyle;rounded=0;orthogonalLoop=1;jettySize=auto;html=1;" edge="1" parent="1" source="sPCmXi25brNPtL-pwrYz-85" target="sPCmXi25brNPtL-pwrYz-90">
          <mxGeometry relative="1" as="geometry" />
        </mxCell>
        <mxCell id="sPCmXi25brNPtL-pwrYz-96" value="False" style="edgeLabel;html=1;align=center;verticalAlign=middle;resizable=0;points=[];" vertex="1" connectable="0" parent="sPCmXi25brNPtL-pwrYz-91">
          <mxGeometry x="0.0074" y="-2" relative="1" as="geometry">
            <mxPoint as="offset" />
          </mxGeometry>
        </mxCell>
        <mxCell id="sPCmXi25brNPtL-pwrYz-85" value="if nomor&amp;nbsp;&lt;div&gt;tidak ada di data&lt;/div&gt;" style="rhombus;whiteSpace=wrap;html=1;" vertex="1" parent="1">
          <mxGeometry x="2961.1800000000003" y="3290" width="85.88" height="100" as="geometry" />
        </mxCell>
        <mxCell id="sPCmXi25brNPtL-pwrYz-87" value="Output&amp;nbsp;&lt;div&gt;&quot;nomor yang anda masukkan tidak valid&quot;&lt;/div&gt;" style="shape=parallelogram;perimeter=parallelogramPerimeter;whiteSpace=wrap;html=1;fixedSize=1;" vertex="1" parent="1">
          <mxGeometry x="2931.18" y="3440" width="145.88" height="80" as="geometry" />
        </mxCell>
        <mxCell id="sPCmXi25brNPtL-pwrYz-93" value="" style="edgeStyle=orthogonalEdgeStyle;rounded=0;orthogonalLoop=1;jettySize=auto;html=1;" edge="1" parent="1" source="sPCmXi25brNPtL-pwrYz-90" target="sPCmXi25brNPtL-pwrYz-92">
          <mxGeometry relative="1" as="geometry" />
        </mxCell>
        <mxCell id="sPCmXi25brNPtL-pwrYz-90" value="input tanggal,jam dan lapangan yang ingin di ubah" style="shape=parallelogram;perimeter=parallelogramPerimeter;whiteSpace=wrap;html=1;fixedSize=1;" vertex="1" parent="1">
          <mxGeometry x="3110.58" y="3300" width="150" height="80" as="geometry" />
        </mxCell>
        <mxCell id="sPCmXi25brNPtL-pwrYz-95" value="" style="edgeStyle=orthogonalEdgeStyle;rounded=0;orthogonalLoop=1;jettySize=auto;html=1;" edge="1" parent="1" source="sPCmXi25brNPtL-pwrYz-92" target="sPCmXi25brNPtL-pwrYz-94">
          <mxGeometry relative="1" as="geometry" />
        </mxCell>
        <mxCell id="sPCmXi25brNPtL-pwrYz-97" value="True" style="edgeLabel;html=1;align=center;verticalAlign=middle;resizable=0;points=[];" vertex="1" connectable="0" parent="sPCmXi25brNPtL-pwrYz-95">
          <mxGeometry x="-0.4273" y="2" relative="1" as="geometry">
            <mxPoint as="offset" />
          </mxGeometry>
        </mxCell>
        <mxCell id="sPCmXi25brNPtL-pwrYz-99" value="" style="edgeStyle=orthogonalEdgeStyle;rounded=0;orthogonalLoop=1;jettySize=auto;html=1;" edge="1" parent="1" source="sPCmXi25brNPtL-pwrYz-92" target="sPCmXi25brNPtL-pwrYz-98">
          <mxGeometry relative="1" as="geometry" />
        </mxCell>
        <mxCell id="sPCmXi25brNPtL-pwrYz-92" value="if tanggal,&lt;div&gt;jam dan lapangan kosong&lt;/div&gt;" style="rhombus;whiteSpace=wrap;html=1;" vertex="1" parent="1">
          <mxGeometry x="3125.58" y="3425" width="120" height="125" as="geometry" />
        </mxCell>
        <mxCell id="sPCmXi25brNPtL-pwrYz-105" style="edgeStyle=orthogonalEdgeStyle;rounded=0;orthogonalLoop=1;jettySize=auto;html=1;exitX=0;exitY=0.5;exitDx=0;exitDy=0;entryX=0.25;entryY=1;entryDx=0;entryDy=0;" edge="1" parent="1" source="sPCmXi25brNPtL-pwrYz-94" target="sPCmXi25brNPtL-pwrYz-90">
          <mxGeometry relative="1" as="geometry">
            <mxPoint x="3100" y="3400" as="targetPoint" />
            <Array as="points">
              <mxPoint x="3090" y="3620" />
              <mxPoint x="3090" y="3400" />
              <mxPoint x="3148" y="3400" />
            </Array>
          </mxGeometry>
        </mxCell>
        <mxCell id="sPCmXi25brNPtL-pwrYz-94" value="Output &quot;semua&lt;div&gt;&amp;nbsp;data harus diisi&quot;&lt;div&gt;&lt;br&gt;&lt;/div&gt;&lt;/div&gt;" style="shape=parallelogram;perimeter=parallelogramPerimeter;whiteSpace=wrap;html=1;fixedSize=1;" vertex="1" parent="1">
          <mxGeometry x="3125.58" y="3590" width="120" height="60" as="geometry" />
        </mxCell>
        <mxCell id="sPCmXi25brNPtL-pwrYz-101" value="" style="edgeStyle=orthogonalEdgeStyle;rounded=0;orthogonalLoop=1;jettySize=auto;html=1;" edge="1" parent="1" source="sPCmXi25brNPtL-pwrYz-98" target="sPCmXi25brNPtL-pwrYz-100">
          <mxGeometry relative="1" as="geometry" />
        </mxCell>
        <mxCell id="sPCmXi25brNPtL-pwrYz-98" value="tanggal,jam dan lapangan =&lt;div&gt;bookings&lt;/div&gt;" style="whiteSpace=wrap;html=1;" vertex="1" parent="1">
          <mxGeometry x="3325.58" y="3457.5" width="120" height="60" as="geometry" />
        </mxCell>
        <mxCell id="sPCmXi25brNPtL-pwrYz-106" style="edgeStyle=orthogonalEdgeStyle;rounded=0;orthogonalLoop=1;jettySize=auto;html=1;exitX=0.5;exitY=1;exitDx=0;exitDy=0;entryX=1.045;entryY=0.42;entryDx=0;entryDy=0;entryPerimeter=0;" edge="1" parent="1" source="sPCmXi25brNPtL-pwrYz-100" target="sPCmXi25brNPtL-pwrYz-102">
          <mxGeometry relative="1" as="geometry">
            <mxPoint x="2920" y="3740" as="targetPoint" />
            <Array as="points">
              <mxPoint x="3575" y="3734" />
              <mxPoint x="2920" y="3734" />
            </Array>
          </mxGeometry>
        </mxCell>
        <mxCell id="sPCmXi25brNPtL-pwrYz-100" value="output&lt;div&gt;&quot;data berhasil&amp;nbsp;&lt;div&gt;diubah&quot;&lt;/div&gt;&lt;/div&gt;" style="shape=parallelogram;perimeter=parallelogramPerimeter;whiteSpace=wrap;html=1;fixedSize=1;" vertex="1" parent="1">
          <mxGeometry x="3514.83" y="3457.5" width="120" height="60" as="geometry" />
        </mxCell>
        <mxCell id="sPCmXi25brNPtL-pwrYz-102" value="END" style="ellipse;whiteSpace=wrap;html=1;" vertex="1" parent="1">
          <mxGeometry x="2790" y="3700" width="80" height="80" as="geometry" />
        </mxCell>
        <mxCell id="sPCmXi25brNPtL-pwrYz-104" style="edgeStyle=orthogonalEdgeStyle;rounded=0;orthogonalLoop=1;jettySize=auto;html=1;exitX=0;exitY=0.5;exitDx=0;exitDy=0;entryX=0.084;entryY=0.973;entryDx=0;entryDy=0;entryPerimeter=0;" edge="1" parent="1" source="sPCmXi25brNPtL-pwrYz-87" target="sPCmXi25brNPtL-pwrYz-82">
          <mxGeometry relative="1" as="geometry" />
        </mxCell>
        <mxCell id="sPCmXi25brNPtL-pwrYz-109" value="" style="edgeStyle=orthogonalEdgeStyle;rounded=0;orthogonalLoop=1;jettySize=auto;html=1;" edge="1" parent="1" source="sPCmXi25brNPtL-pwrYz-107" target="sPCmXi25brNPtL-pwrYz-108">
          <mxGeometry relative="1" as="geometry" />
        </mxCell>
        <mxCell id="sPCmXi25brNPtL-pwrYz-107" value="hapus_penyewaan&lt;div&gt;(username)&lt;/div&gt;" style="shape=process;whiteSpace=wrap;html=1;backgroundOutline=1;" vertex="1" parent="1">
          <mxGeometry x="590" y="4040" width="130" height="60" as="geometry" />
        </mxCell>
        <mxCell id="sPCmXi25brNPtL-pwrYz-111" value="" style="edgeStyle=orthogonalEdgeStyle;rounded=0;orthogonalLoop=1;jettySize=auto;html=1;" edge="1" parent="1" source="sPCmXi25brNPtL-pwrYz-108" target="sPCmXi25brNPtL-pwrYz-110">
          <mxGeometry relative="1" as="geometry" />
        </mxCell>
        <mxCell id="sPCmXi25brNPtL-pwrYz-108" value="Output&amp;nbsp;&lt;div&gt;&quot;Hapus Penyewaan&quot;&lt;/div&gt;" style="shape=parallelogram;perimeter=parallelogramPerimeter;whiteSpace=wrap;html=1;fixedSize=1;" vertex="1" parent="1">
          <mxGeometry x="587.5" y="4160" width="135" height="60" as="geometry" />
        </mxCell>
        <mxCell id="sPCmXi25brNPtL-pwrYz-113" value="" style="edgeStyle=orthogonalEdgeStyle;rounded=0;orthogonalLoop=1;jettySize=auto;html=1;" edge="1" parent="1" source="sPCmXi25brNPtL-pwrYz-110" target="sPCmXi25brNPtL-pwrYz-112">
          <mxGeometry relative="1" as="geometry" />
        </mxCell>
        <mxCell id="sPCmXi25brNPtL-pwrYz-114" value="True" style="edgeLabel;html=1;align=center;verticalAlign=middle;resizable=0;points=[];" vertex="1" connectable="0" parent="sPCmXi25brNPtL-pwrYz-113">
          <mxGeometry x="0.0037" y="-1" relative="1" as="geometry">
            <mxPoint as="offset" />
          </mxGeometry>
        </mxCell>
        <mxCell id="sPCmXi25brNPtL-pwrYz-116" value="" style="edgeStyle=orthogonalEdgeStyle;rounded=0;orthogonalLoop=1;jettySize=auto;html=1;" edge="1" parent="1" source="sPCmXi25brNPtL-pwrYz-110" target="sPCmXi25brNPtL-pwrYz-115">
          <mxGeometry relative="1" as="geometry" />
        </mxCell>
        <mxCell id="sPCmXi25brNPtL-pwrYz-117" value="False" style="edgeLabel;html=1;align=center;verticalAlign=middle;resizable=0;points=[];" vertex="1" connectable="0" parent="sPCmXi25brNPtL-pwrYz-116">
          <mxGeometry x="-0.2499" y="-2" relative="1" as="geometry">
            <mxPoint as="offset" />
          </mxGeometry>
        </mxCell>
        <mxCell id="sPCmXi25brNPtL-pwrYz-110" value="if booking&lt;div&gt;tidak ada&lt;/div&gt;" style="rhombus;whiteSpace=wrap;html=1;" vertex="1" parent="1">
          <mxGeometry x="602.41" y="4270" width="105.17" height="80" as="geometry" />
        </mxCell>
        <mxCell id="sPCmXi25brNPtL-pwrYz-139" value="" style="edgeStyle=orthogonalEdgeStyle;rounded=0;orthogonalLoop=1;jettySize=auto;html=1;" edge="1" parent="1" source="sPCmXi25brNPtL-pwrYz-112" target="sPCmXi25brNPtL-pwrYz-138">
          <mxGeometry relative="1" as="geometry" />
        </mxCell>
        <mxCell id="sPCmXi25brNPtL-pwrYz-112" value="Output&lt;div&gt;&amp;nbsp;&quot;tidak ada penyewaan untuk pengguna ini.&quot;&lt;div&gt;&lt;br&gt;&lt;/div&gt;&lt;/div&gt;" style="shape=parallelogram;perimeter=parallelogramPerimeter;whiteSpace=wrap;html=1;fixedSize=1;" vertex="1" parent="1">
          <mxGeometry x="577.49" y="4430" width="155.01" height="60" as="geometry" />
        </mxCell>
        <mxCell id="sPCmXi25brNPtL-pwrYz-119" value="" style="edgeStyle=orthogonalEdgeStyle;rounded=0;orthogonalLoop=1;jettySize=auto;html=1;" edge="1" parent="1" source="sPCmXi25brNPtL-pwrYz-115" target="sPCmXi25brNPtL-pwrYz-118">
          <mxGeometry relative="1" as="geometry" />
        </mxCell>
        <mxCell id="sPCmXi25brNPtL-pwrYz-115" value="input nomor&amp;nbsp;&lt;div&gt;yang ini dihapus&lt;/div&gt;" style="shape=parallelogram;perimeter=parallelogramPerimeter;whiteSpace=wrap;html=1;fixedSize=1;" vertex="1" parent="1">
          <mxGeometry x="805.275" y="4280" width="120" height="60" as="geometry" />
        </mxCell>
        <mxCell id="sPCmXi25brNPtL-pwrYz-121" value="" style="edgeStyle=orthogonalEdgeStyle;rounded=0;orthogonalLoop=1;jettySize=auto;html=1;" edge="1" parent="1" source="sPCmXi25brNPtL-pwrYz-118" target="sPCmXi25brNPtL-pwrYz-120">
          <mxGeometry relative="1" as="geometry" />
        </mxCell>
        <mxCell id="sPCmXi25brNPtL-pwrYz-122" value="True" style="edgeLabel;html=1;align=center;verticalAlign=middle;resizable=0;points=[];" vertex="1" connectable="0" parent="sPCmXi25brNPtL-pwrYz-121">
          <mxGeometry x="-0.0074" y="2" relative="1" as="geometry">
            <mxPoint as="offset" />
          </mxGeometry>
        </mxCell>
        <mxCell id="sPCmXi25brNPtL-pwrYz-124" value="" style="edgeStyle=orthogonalEdgeStyle;rounded=0;orthogonalLoop=1;jettySize=auto;html=1;" edge="1" parent="1" source="sPCmXi25brNPtL-pwrYz-118" target="sPCmXi25brNPtL-pwrYz-123">
          <mxGeometry relative="1" as="geometry" />
        </mxCell>
        <mxCell id="sPCmXi25brNPtL-pwrYz-131" value="False" style="edgeLabel;html=1;align=center;verticalAlign=middle;resizable=0;points=[];" vertex="1" connectable="0" parent="sPCmXi25brNPtL-pwrYz-124">
          <mxGeometry x="0.026" y="-2" relative="1" as="geometry">
            <mxPoint as="offset" />
          </mxGeometry>
        </mxCell>
        <mxCell id="sPCmXi25brNPtL-pwrYz-118" value="if nomor&lt;div&gt;&amp;nbsp;bukan angka&lt;/div&gt;" style="rhombus;whiteSpace=wrap;html=1;" vertex="1" parent="1">
          <mxGeometry x="812.91" y="4390" width="104.73" height="80" as="geometry" />
        </mxCell>
        <mxCell id="sPCmXi25brNPtL-pwrYz-125" style="edgeStyle=orthogonalEdgeStyle;rounded=0;orthogonalLoop=1;jettySize=auto;html=1;exitX=0;exitY=0.5;exitDx=0;exitDy=0;entryX=0.25;entryY=1;entryDx=0;entryDy=0;" edge="1" parent="1" source="sPCmXi25brNPtL-pwrYz-120" target="sPCmXi25brNPtL-pwrYz-115">
          <mxGeometry relative="1" as="geometry">
            <mxPoint x="770" y="4370" as="targetPoint" />
            <Array as="points">
              <mxPoint x="760" y="4560" />
              <mxPoint x="760" y="4370" />
              <mxPoint x="835" y="4370" />
            </Array>
          </mxGeometry>
        </mxCell>
        <mxCell id="sPCmXi25brNPtL-pwrYz-120" value="Output &quot; input&amp;nbsp;&lt;div&gt;harus berupa angka&quot;&lt;/div&gt;" style="shape=parallelogram;perimeter=parallelogramPerimeter;whiteSpace=wrap;html=1;fixedSize=1;" vertex="1" parent="1">
          <mxGeometry x="797.9" y="4540" width="134.74" height="60" as="geometry" />
        </mxCell>
        <mxCell id="sPCmXi25brNPtL-pwrYz-129" value="" style="edgeStyle=orthogonalEdgeStyle;rounded=0;orthogonalLoop=1;jettySize=auto;html=1;" edge="1" parent="1" source="sPCmXi25brNPtL-pwrYz-123" target="sPCmXi25brNPtL-pwrYz-128">
          <mxGeometry relative="1" as="geometry" />
        </mxCell>
        <mxCell id="sPCmXi25brNPtL-pwrYz-130" value="True" style="edgeLabel;html=1;align=center;verticalAlign=middle;resizable=0;points=[];" vertex="1" connectable="0" parent="sPCmXi25brNPtL-pwrYz-129">
          <mxGeometry x="0.1473" y="-1" relative="1" as="geometry">
            <mxPoint as="offset" />
          </mxGeometry>
        </mxCell>
        <mxCell id="sPCmXi25brNPtL-pwrYz-133" value="" style="edgeStyle=orthogonalEdgeStyle;rounded=0;orthogonalLoop=1;jettySize=auto;html=1;" edge="1" parent="1" source="sPCmXi25brNPtL-pwrYz-123" target="sPCmXi25brNPtL-pwrYz-132">
          <mxGeometry relative="1" as="geometry" />
        </mxCell>
        <mxCell id="sPCmXi25brNPtL-pwrYz-136" value="False" style="edgeLabel;html=1;align=center;verticalAlign=middle;resizable=0;points=[];" vertex="1" connectable="0" parent="sPCmXi25brNPtL-pwrYz-133">
          <mxGeometry x="-0.1281" y="-3" relative="1" as="geometry">
            <mxPoint as="offset" />
          </mxGeometry>
        </mxCell>
        <mxCell id="sPCmXi25brNPtL-pwrYz-123" value="if nomor yang&lt;div&gt;&amp;nbsp;diinput tidak terdata&lt;/div&gt;" style="rhombus;whiteSpace=wrap;html=1;" vertex="1" parent="1">
          <mxGeometry x="1000" y="4365" width="142.36" height="130" as="geometry" />
        </mxCell>
        <mxCell id="sPCmXi25brNPtL-pwrYz-137" style="edgeStyle=orthogonalEdgeStyle;rounded=0;orthogonalLoop=1;jettySize=auto;html=1;exitX=0.5;exitY=1;exitDx=0;exitDy=0;" edge="1" parent="1" source="sPCmXi25brNPtL-pwrYz-128">
          <mxGeometry relative="1" as="geometry">
            <mxPoint x="760" y="4530" as="targetPoint" />
            <Array as="points">
              <mxPoint x="1071" y="4640" />
              <mxPoint x="720" y="4640" />
            </Array>
          </mxGeometry>
        </mxCell>
        <mxCell id="sPCmXi25brNPtL-pwrYz-128" value="Output&lt;div&gt;&amp;nbsp;&quot;nomor tidak valid&quot;&lt;/div&gt;" style="shape=parallelogram;perimeter=parallelogramPerimeter;whiteSpace=wrap;html=1;fixedSize=1;" vertex="1" parent="1">
          <mxGeometry x="1006.77" y="4540" width="128.82" height="60" as="geometry" />
        </mxCell>
        <mxCell id="sPCmXi25brNPtL-pwrYz-135" value="" style="edgeStyle=orthogonalEdgeStyle;rounded=0;orthogonalLoop=1;jettySize=auto;html=1;" edge="1" parent="1" source="sPCmXi25brNPtL-pwrYz-132" target="sPCmXi25brNPtL-pwrYz-134">
          <mxGeometry relative="1" as="geometry" />
        </mxCell>
        <mxCell id="sPCmXi25brNPtL-pwrYz-132" value="menghapus nomor&amp;nbsp;&lt;div&gt;yang diinput&lt;/div&gt;" style="whiteSpace=wrap;html=1;" vertex="1" parent="1">
          <mxGeometry x="1233.5400000000002" y="4400" width="120" height="60" as="geometry" />
        </mxCell>
        <mxCell id="sPCmXi25brNPtL-pwrYz-140" style="edgeStyle=orthogonalEdgeStyle;rounded=0;orthogonalLoop=1;jettySize=auto;html=1;exitX=0.5;exitY=1;exitDx=0;exitDy=0;entryX=0.991;entryY=0.363;entryDx=0;entryDy=0;entryPerimeter=0;" edge="1" parent="1" source="sPCmXi25brNPtL-pwrYz-134" target="sPCmXi25brNPtL-pwrYz-138">
          <mxGeometry relative="1" as="geometry">
            <mxPoint x="700" y="4720" as="targetPoint" />
            <Array as="points">
              <mxPoint x="1494" y="4590" />
              <mxPoint x="1500" y="4590" />
              <mxPoint x="1500" y="4720" />
              <mxPoint x="694" y="4720" />
            </Array>
          </mxGeometry>
        </mxCell>
        <mxCell id="sPCmXi25brNPtL-pwrYz-134" value="&amp;nbsp;output&quot;&lt;div&gt;data berhasil&amp;nbsp;&lt;div&gt;dihapus&quot;&lt;/div&gt;&lt;/div&gt;" style="shape=parallelogram;perimeter=parallelogramPerimeter;whiteSpace=wrap;html=1;fixedSize=1;" vertex="1" parent="1">
          <mxGeometry x="1433.5400000000002" y="4400" width="120" height="60" as="geometry" />
        </mxCell>
        <mxCell id="sPCmXi25brNPtL-pwrYz-138" value="END" style="ellipse;whiteSpace=wrap;html=1;" vertex="1" parent="1">
          <mxGeometry x="614.995" y="4690" width="80" height="80" as="geometry" />
        </mxCell>
        <mxCell id="sPCmXi25brNPtL-pwrYz-142" value="" style="edgeStyle=none;orthogonalLoop=1;jettySize=auto;html=1;rounded=0;" edge="1" parent="1">
          <mxGeometry width="100" relative="1" as="geometry">
            <mxPoint x="1490" y="880" as="sourcePoint" />
            <mxPoint x="1571.5" y="880" as="targetPoint" />
            <Array as="points" />
          </mxGeometry>
        </mxCell>
        <mxCell id="sPCmXi25brNPtL-pwrYz-144" value="" style="edgeStyle=none;orthogonalLoop=1;jettySize=auto;html=1;rounded=0;" edge="1" parent="1">
          <mxGeometry width="100" relative="1" as="geometry">
            <mxPoint x="918.59" y="480" as="sourcePoint" />
            <mxPoint x="1000.09" y="480" as="targetPoint" />
            <Array as="points" />
          </mxGeometry>
        </mxCell>
        <mxCell id="sPCmXi25brNPtL-pwrYz-145" value="" style="edgeStyle=none;orthogonalLoop=1;jettySize=auto;html=1;rounded=0;" edge="1" parent="1">
          <mxGeometry width="100" relative="1" as="geometry">
            <mxPoint x="514.92" y="2319.09" as="sourcePoint" />
            <mxPoint x="596.42" y="2319.09" as="targetPoint" />
            <Array as="points" />
          </mxGeometry>
        </mxCell>
        <mxCell id="sPCmXi25brNPtL-pwrYz-146" value="" style="edgeStyle=none;orthogonalLoop=1;jettySize=auto;html=1;rounded=0;" edge="1" parent="1">
          <mxGeometry width="100" relative="1" as="geometry">
            <mxPoint x="603.51" y="2249.09" as="sourcePoint" />
            <mxPoint x="685.01" y="2249.09" as="targetPoint" />
            <Array as="points" />
          </mxGeometry>
        </mxCell>
        <mxCell id="sPCmXi25brNPtL-pwrYz-148" value="" style="edgeStyle=none;orthogonalLoop=1;jettySize=auto;html=1;rounded=0;" edge="1" parent="1">
          <mxGeometry width="100" relative="1" as="geometry">
            <mxPoint x="1121.24" y="2510" as="sourcePoint" />
            <mxPoint x="1202.74" y="2510" as="targetPoint" />
            <Array as="points" />
          </mxGeometry>
        </mxCell>
        <mxCell id="sPCmXi25brNPtL-pwrYz-149" value="" style="edgeStyle=none;orthogonalLoop=1;jettySize=auto;html=1;rounded=0;" edge="1" parent="1">
          <mxGeometry width="100" relative="1" as="geometry">
            <mxPoint x="893.76" y="2640" as="sourcePoint" />
            <mxPoint x="975.26" y="2640" as="targetPoint" />
            <Array as="points" />
          </mxGeometry>
        </mxCell>
        <mxCell id="sPCmXi25brNPtL-pwrYz-150" value="" style="edgeStyle=none;orthogonalLoop=1;jettySize=auto;html=1;rounded=0;" edge="1" parent="1">
          <mxGeometry width="100" relative="1" as="geometry">
            <mxPoint x="623.59" y="2649.09" as="sourcePoint" />
            <mxPoint x="705.09" y="2649.09" as="targetPoint" />
            <Array as="points" />
          </mxGeometry>
        </mxCell>
        <mxCell id="sPCmXi25brNPtL-pwrYz-151" value="" style="edgeStyle=none;orthogonalLoop=1;jettySize=auto;html=1;rounded=0;" edge="1" parent="1">
          <mxGeometry width="100" relative="1" as="geometry">
            <mxPoint x="1336.5" y="2399.05" as="sourcePoint" />
            <mxPoint x="1418" y="2399.05" as="targetPoint" />
            <Array as="points" />
          </mxGeometry>
        </mxCell>
        <mxCell id="sPCmXi25brNPtL-pwrYz-152" value="" style="edgeStyle=none;orthogonalLoop=1;jettySize=auto;html=1;rounded=0;" edge="1" parent="1">
          <mxGeometry width="100" relative="1" as="geometry">
            <mxPoint x="1550.87" y="2260" as="sourcePoint" />
            <mxPoint x="1632.37" y="2260" as="targetPoint" />
            <Array as="points" />
          </mxGeometry>
        </mxCell>
        <mxCell id="sPCmXi25brNPtL-pwrYz-153" value="" style="edgeStyle=none;orthogonalLoop=1;jettySize=auto;html=1;rounded=0;" edge="1" parent="1">
          <mxGeometry width="100" relative="1" as="geometry">
            <mxPoint x="1856.33" y="2445" as="sourcePoint" />
            <mxPoint x="1937.83" y="2445" as="targetPoint" />
            <Array as="points" />
          </mxGeometry>
        </mxCell>
        <mxCell id="sPCmXi25brNPtL-pwrYz-154" value="" style="edgeStyle=none;orthogonalLoop=1;jettySize=auto;html=1;rounded=0;" edge="1" parent="1">
          <mxGeometry width="100" relative="1" as="geometry">
            <mxPoint x="2060.66" y="2440" as="sourcePoint" />
            <mxPoint x="2142.16" y="2440" as="targetPoint" />
            <Array as="points" />
          </mxGeometry>
        </mxCell>
        <mxCell id="sPCmXi25brNPtL-pwrYz-155" value="" style="edgeStyle=none;orthogonalLoop=1;jettySize=auto;html=1;rounded=0;" edge="1" parent="1">
          <mxGeometry width="100" relative="1" as="geometry">
            <mxPoint x="2276.33" y="2440" as="sourcePoint" />
            <mxPoint x="2357.83" y="2440" as="targetPoint" />
            <Array as="points" />
          </mxGeometry>
        </mxCell>
        <mxCell id="sPCmXi25brNPtL-pwrYz-156" value="" style="edgeStyle=none;orthogonalLoop=1;jettySize=auto;html=1;rounded=0;" edge="1" parent="1">
          <mxGeometry width="100" relative="1" as="geometry">
            <mxPoint x="2501.25" y="2300" as="sourcePoint" />
            <mxPoint x="2582.75" y="2300" as="targetPoint" />
            <Array as="points" />
          </mxGeometry>
        </mxCell>
        <mxCell id="sPCmXi25brNPtL-pwrYz-157" value="" style="edgeStyle=none;orthogonalLoop=1;jettySize=auto;html=1;rounded=0;" edge="1" parent="1">
          <mxGeometry width="100" relative="1" as="geometry">
            <mxPoint x="1490" y="3210" as="sourcePoint" />
            <mxPoint x="1571.5" y="3210" as="targetPoint" />
            <Array as="points" />
          </mxGeometry>
        </mxCell>
        <mxCell id="sPCmXi25brNPtL-pwrYz-158" value="" style="edgeStyle=none;orthogonalLoop=1;jettySize=auto;html=1;rounded=0;" edge="1" parent="1">
          <mxGeometry width="100" relative="1" as="geometry">
            <mxPoint x="3470" y="2260" as="sourcePoint" />
            <mxPoint x="3551.5" y="2260" as="targetPoint" />
            <Array as="points" />
          </mxGeometry>
        </mxCell>
        <mxCell id="sPCmXi25brNPtL-pwrYz-159" value="" style="edgeStyle=none;orthogonalLoop=1;jettySize=auto;html=1;rounded=0;" edge="1" parent="1">
          <mxGeometry width="100" relative="1" as="geometry">
            <mxPoint x="3380" y="2479.55" as="sourcePoint" />
            <mxPoint x="3461.5" y="2479.55" as="targetPoint" />
            <Array as="points" />
          </mxGeometry>
        </mxCell>
        <mxCell id="sPCmXi25brNPtL-pwrYz-160" value="" style="edgeStyle=none;orthogonalLoop=1;jettySize=auto;html=1;rounded=0;" edge="1" parent="1">
          <mxGeometry width="100" relative="1" as="geometry">
            <mxPoint x="1994" y="3200" as="sourcePoint" />
            <mxPoint x="2075.5" y="3200" as="targetPoint" />
            <Array as="points" />
          </mxGeometry>
        </mxCell>
        <mxCell id="sPCmXi25brNPtL-pwrYz-161" value="" style="edgeStyle=none;orthogonalLoop=1;jettySize=auto;html=1;rounded=0;" edge="1" parent="1">
          <mxGeometry width="100" relative="1" as="geometry">
            <mxPoint x="2010" y="3319.09" as="sourcePoint" />
            <mxPoint x="2091.5" y="3319.09" as="targetPoint" />
            <Array as="points" />
          </mxGeometry>
        </mxCell>
        <mxCell id="sPCmXi25brNPtL-pwrYz-162" value="" style="edgeStyle=none;orthogonalLoop=1;jettySize=auto;html=1;rounded=0;" edge="1" parent="1">
          <mxGeometry width="100" relative="1" as="geometry">
            <mxPoint x="1870" y="3410" as="sourcePoint" />
            <mxPoint x="1951.5" y="3410" as="targetPoint" />
            <Array as="points" />
          </mxGeometry>
        </mxCell>
        <mxCell id="sPCmXi25brNPtL-pwrYz-163" value="" style="edgeStyle=none;orthogonalLoop=1;jettySize=auto;html=1;rounded=0;" edge="1" parent="1">
          <mxGeometry width="100" relative="1" as="geometry">
            <mxPoint x="2430" y="3580" as="sourcePoint" />
            <mxPoint x="2511.5" y="3580" as="targetPoint" />
            <Array as="points" />
          </mxGeometry>
        </mxCell>
        <mxCell id="sPCmXi25brNPtL-pwrYz-164" value="" style="edgeStyle=none;orthogonalLoop=1;jettySize=auto;html=1;rounded=0;" edge="1" parent="1">
          <mxGeometry width="100" relative="1" as="geometry">
            <mxPoint x="1994" y="3720" as="sourcePoint" />
            <mxPoint x="2075.5" y="3720" as="targetPoint" />
            <Array as="points" />
          </mxGeometry>
        </mxCell>
        <mxCell id="sPCmXi25brNPtL-pwrYz-165" value="" style="edgeStyle=none;orthogonalLoop=1;jettySize=auto;html=1;rounded=0;" edge="1" parent="1">
          <mxGeometry width="100" relative="1" as="geometry">
            <mxPoint x="2921.25" y="3170" as="sourcePoint" />
            <mxPoint x="3002.75" y="3170" as="targetPoint" />
            <Array as="points" />
          </mxGeometry>
        </mxCell>
        <mxCell id="sPCmXi25brNPtL-pwrYz-166" value="" style="edgeStyle=none;orthogonalLoop=1;jettySize=auto;html=1;rounded=0;" edge="1" parent="1">
          <mxGeometry width="100" relative="1" as="geometry">
            <mxPoint x="2830" y="3370" as="sourcePoint" />
            <mxPoint x="2911.5" y="3370" as="targetPoint" />
            <Array as="points" />
          </mxGeometry>
        </mxCell>
        <mxCell id="sPCmXi25brNPtL-pwrYz-167" value="" style="edgeStyle=none;orthogonalLoop=1;jettySize=auto;html=1;rounded=0;" edge="1" parent="1">
          <mxGeometry width="100" relative="1" as="geometry">
            <mxPoint x="3100.2" y="3310" as="sourcePoint" />
            <mxPoint x="3181.7" y="3310" as="targetPoint" />
            <Array as="points" />
          </mxGeometry>
        </mxCell>
        <mxCell id="sPCmXi25brNPtL-pwrYz-168" value="" style="edgeStyle=none;orthogonalLoop=1;jettySize=auto;html=1;rounded=0;" edge="1" parent="1">
          <mxGeometry width="100" relative="1" as="geometry">
            <mxPoint x="3002.75" y="3510" as="sourcePoint" />
            <mxPoint x="3084.25" y="3510" as="targetPoint" />
            <Array as="points" />
          </mxGeometry>
        </mxCell>
        <mxCell id="sPCmXi25brNPtL-pwrYz-169" value="" style="edgeStyle=none;orthogonalLoop=1;jettySize=auto;html=1;rounded=0;" edge="1" parent="1">
          <mxGeometry width="100" relative="1" as="geometry">
            <mxPoint x="3179.08" y="3640" as="sourcePoint" />
            <mxPoint x="3260.58" y="3640" as="targetPoint" />
            <Array as="points" />
          </mxGeometry>
        </mxCell>
        <mxCell id="sPCmXi25brNPtL-pwrYz-170" value="" style="edgeStyle=none;orthogonalLoop=1;jettySize=auto;html=1;rounded=0;" edge="1" parent="1">
          <mxGeometry width="100" relative="1" as="geometry">
            <mxPoint x="3590" y="3510" as="sourcePoint" />
            <mxPoint x="3671.5" y="3510" as="targetPoint" />
            <Array as="points" />
          </mxGeometry>
        </mxCell>
        <mxCell id="sPCmXi25brNPtL-pwrYz-171" value="" style="edgeStyle=none;orthogonalLoop=1;jettySize=auto;html=1;rounded=0;" edge="1" parent="1">
          <mxGeometry width="100" relative="1" as="geometry">
            <mxPoint x="664.41" y="4210" as="sourcePoint" />
            <mxPoint x="745.91" y="4210" as="targetPoint" />
            <Array as="points" />
          </mxGeometry>
        </mxCell>
        <mxCell id="sPCmXi25brNPtL-pwrYz-172" value="" style="edgeStyle=none;orthogonalLoop=1;jettySize=auto;html=1;rounded=0;" edge="1" parent="1">
          <mxGeometry width="100" relative="1" as="geometry">
            <mxPoint x="780" y="4290" as="sourcePoint" />
            <mxPoint x="861.5" y="4290" as="targetPoint" />
            <Array as="points" />
          </mxGeometry>
        </mxCell>
        <mxCell id="sPCmXi25brNPtL-pwrYz-173" value="" style="edgeStyle=none;orthogonalLoop=1;jettySize=auto;html=1;rounded=0;" edge="1" parent="1">
          <mxGeometry width="100" relative="1" as="geometry">
            <mxPoint x="664.41" y="4480" as="sourcePoint" />
            <mxPoint x="745.91" y="4480" as="targetPoint" />
            <Array as="points" />
          </mxGeometry>
        </mxCell>
        <mxCell id="sPCmXi25brNPtL-pwrYz-174" value="" style="edgeStyle=none;orthogonalLoop=1;jettySize=auto;html=1;rounded=0;" edge="1" parent="1">
          <mxGeometry width="100" relative="1" as="geometry">
            <mxPoint x="860" y="4590" as="sourcePoint" />
            <mxPoint x="941.5" y="4590" as="targetPoint" />
            <Array as="points" />
          </mxGeometry>
        </mxCell>
        <mxCell id="sPCmXi25brNPtL-pwrYz-175" value="" style="edgeStyle=none;orthogonalLoop=1;jettySize=auto;html=1;rounded=0;" edge="1" parent="1">
          <mxGeometry width="100" relative="1" as="geometry">
            <mxPoint x="1068.22" y="4590" as="sourcePoint" />
            <mxPoint x="1149.72" y="4590" as="targetPoint" />
            <Array as="points" />
          </mxGeometry>
        </mxCell>
        <mxCell id="sPCmXi25brNPtL-pwrYz-176" value="" style="edgeStyle=none;orthogonalLoop=1;jettySize=auto;html=1;rounded=0;" edge="1" parent="1">
          <mxGeometry width="100" relative="1" as="geometry">
            <mxPoint x="1500" y="4450" as="sourcePoint" />
            <mxPoint x="1581.5" y="4450" as="targetPoint" />
            <Array as="points" />
          </mxGeometry>
        </mxCell>
      </root>
    </mxGraphModel>
  </diagram>
  <diagram id="KAojOi_U6Em8UWiGRwFF" name="Page-2">
    <mxGraphModel grid="1" page="1" gridSize="10" guides="1" tooltips="1" connect="1" arrows="1" fold="1" pageScale="1" pageWidth="850" pageHeight="1100" math="0" shadow="0">
      <root>
        <mxCell id="0" />
        <mxCell id="1" parent="0" />
      </root>
    </mxGraphModel>
  </diagram>
</mxfile>
